<svg xmlns="http://www.w3.org/2000/svg" xmlns:xlink="http://www.w3.org/1999/xlink" viewBox="0 0 430 430" width="430" height="430" preserveAspectRatio="xMidYMid meet" style="width: 100%; height: 100%; transform: translate3d(0px, 0px, 0px); content-visibility: visible;"><defs><clipPath id="__lottie_element_2290"><rect width="430" height="430" x="0" y="0"/></clipPath><clipPath id="__lottie_element_2292"><path d="M0,0 L430,0 L430,430 L0,430z"/></clipPath><g id="__lottie_element_2302"><g transform="matrix(4,0,0,4,215,239)" opacity="1" style="display: block;"><g opacity="1" transform="matrix(1,0,0,1,0,0)"><path fill="rgb(255,0,0)" fill-opacity="1" d=" M24.40999984741211,-39.42300033569336 C24.40999984741211,-39.42300033569336 -23.638999938964844,-39.42300033569336 -23.638999938964844,-39.42300033569336 C-23.638999938964844,-39.42300033569336 -23.427000045776367,4.701000213623047 -23.427000045776367,4.701000213623047 C-23.427000045776367,4.701000213623047 -23.426000595092773,5.077000141143799 -23.426000595092773,5.077000141143799 C-23.426000595092773,5.077000141143799 -36,25.490999221801758 -36,25.490999221801758 C-36,25.490999221801758 -35.94599914550781,25.490999221801758 -35.94599914550781,25.490999221801758 C-35.94599914550781,25.490999221801758 36.137001037597656,25.483999252319336 36.137001037597656,25.483999252319336 C36.137001037597656,25.483999252319336 36.11000061035156,25.44499969482422 36.11000061035156,25.44499969482422 C36.11000061035156,25.44499969482422 24.409000396728516,4.2170000076293945 24.409000396728516,4.2170000076293945 C24.409000396728516,4.2170000076293945 24.409000396728516,3.947999954223633 24.409000396728516,3.947999954223633 C24.409000396728516,3.947999954223633 24.40999984741211,-39.42300033569336 24.40999984741211,-39.42300033569336z M4.239999771118164,-48.775001525878906 C4.239999771118164,-48.775001525878906 -3.509000062942505,-48.775001525878906 -3.509000062942505,-48.775001525878906 C-3.509000062942505,-48.775001525878906 -3.509000062942505,-43.21699905395508 -3.509000062942505,-43.21699905395508 C-3.509000062942505,-43.21699905395508 -3.509000062942505,-39.42300033569336 -3.509000062942505,-39.42300033569336 C-3.509000062942505,-39.42300033569336 4.239999771118164,-39.42300033569336 4.239999771118164,-39.42300033569336 C4.239999771118164,-39.42300033569336 4.239999771118164,-43.18000030517578 4.239999771118164,-43.18000030517578 C4.239999771118164,-43.18000030517578 4.239999771118164,-48.775001525878906 4.239999771118164,-48.775001525878906z"/></g></g></g><filter id="__lottie_element_2305" filterUnits="objectBoundingBox" x="0%" y="0%" width="100%" height="100%"><feComponentTransfer in="SourceGraphic"><feFuncA type="table" tableValues="1.0 0.0"/></feComponentTransfer></filter><mask id="__lottie_element_2302_2" mask-type="alpha"><g filter="url(#__lottie_element_2305)"><rect width="430" height="430" x="0" y="0" fill="#ffffff" opacity="0"/><use xmlns:ns1="http://www.w3.org/1999/xlink" ns1:href="#__lottie_element_2302"/></g></mask></defs><g clip-path="url(#__lottie_element_2290)"><g clip-path="url(#__lottie_element_2292)" transform="matrix(1,0,0,1,0,0)" opacity="1" style="display: block;"><g mask="url(#__lottie_element_2302_2)" style="display: block;"><g transform="matrix(4,0,0,4,215,239)" opacity="1"><g opacity="1" transform="matrix(1,0,0,1,0.125,28.125)"><path stroke-linecap="round" stroke-linejoin="round" fill-opacity="0" class="secondary" stroke="rgb(255,255,255)" stroke-opacity="1" stroke-width="4.725" d=" M0,-9.625 C5.312037467956543,-9.625 9.625,-5.312037467956543 9.625,0 C9.625,5.312037467956543 5.312037467956543,9.625 0,9.625 C-5.312037467956543,9.625 -9.625,5.312037467956543 -9.625,0 C-9.625,-5.312037467956543 -5.312037467956543,-9.625 0,-9.625z"/></g></g></g><g transform="matrix(1,0,0,1,-35,-32.48200225830078)" opacity="1" style="display: block;"><g opacity="1" transform="matrix(1,0,0,1,250,244.18600463867188)"><path stroke-linecap="round" stroke-linejoin="round" fill-opacity="0" class="primary" stroke="rgb(255,255,255)" stroke-opacity="1" stroke-width="18" d=" M97.33699798583984,-43.08599853515625 C97.33799743652344,-90.95899963378906 54.277000427246094,-129.8280029296875 1.2410000562667847,-129.8280029296875 C1.2410000562667847,-129.8280029296875 1.2410000562667847,-129.8280029296875 1.2410000562667847,-129.8280029296875 C-51.79499816894531,-129.8280029296875 -94.66699981689453,-90.28399658203125 -94.43299865722656,-41.58000183105469 C-94.43299865722656,-41.58000183105469 -94.43299865722656,-41.58000183105469 -94.43299865722656,-41.58000183105469 C-94.1989974975586,7.124000072479248 -94.00800323486328,47.005001068115234 -94.00700378417969,47.41999816894531 C-94.00700378417969,47.41999816894531 -94.00700378417969,47.41999816894531 -94.00700378417969,47.41999816894531 C-94.00599670410156,47.834999084472656 -105.27400207519531,66.46700286865234 -119.15299987792969,89 C-119.15299987792969,89 -119.15299987792969,89 -119.15299987792969,89 C-133.03199768066406,111.53299713134766 -144.2530059814453,129.8280029296875 -144.1929931640625,129.8280029296875 C-144.1929931640625,129.8280029296875 -144.1929931640625,129.8280029296875 -144.1929931640625,129.8280029296875 C-144.13299560546875,129.8280029296875 -99.2750015258789,129.822998046875 -44.084999084472656,129.8179931640625 C-44.084999084472656,129.8179931640625 44.24700164794922,129.80999755859375 44.24700164794922,129.80999755859375 C99.43699645996094,129.80499267578125 144.22300720214844,129.76499938964844 144.1929931640625,129.7220001220703 C144.1929931640625,129.7220001220703 144.1929931640625,129.7220001220703 144.1929931640625,129.7220001220703 C144.16299438476562,129.6790008544922 133.6529998779297,110.61900329589844 120.73699951171875,87.18800354003906 C120.73699951171875,87.18800354003906 120.73699951171875,87.18800354003906 120.73699951171875,87.18800354003906 C107.82099914550781,63.75699996948242 97.33499908447266,44.49100112915039 97.33499908447266,44.194000244140625 C97.33499908447266,44.194000244140625 97.33499908447266,44.194000244140625 97.33499908447266,44.194000244140625 C97.33499908447266,43.89699935913086 97.33599853515625,4.7870001792907715 97.33699798583984,-43.08599853515625 C97.33699798583984,-43.08599853515625 97.33699798583984,-43.08599853515625 97.33699798583984,-43.08599853515625z"/></g><g opacity="1" transform="matrix(1,0,0,1,251.16099548339844,95.65399932861328)"><path stroke-linecap="round" stroke-linejoin="round" fill-opacity="0" class="primary" stroke="rgb(255,255,255)" stroke-opacity="1" stroke-width="18" d=" M15.498000144958496,18.70400047302246 C15.498000144958496,18.70400047302246 15.498000144958496,11.1899995803833 15.498000144958496,11.1899995803833 C15.498000144958496,7.043000221252441 15.498000144958496,-1.3380000591278076 15.498000144958496,-7.513999938964844 C15.498000144958496,-7.513999938964844 15.498000144958496,-7.513999938964844 15.498000144958496,-7.513999938964844 C15.498000144958496,-13.6899995803833 8.553000450134277,-18.70400047302246 0,-18.70400047302246 C0,-18.70400047302246 0,-18.70400047302246 0,-18.70400047302246 C-8.553000450134277,-18.70400047302246 -15.498000144958496,-13.722999572753906 -15.498000144958496,-7.5879998207092285 C-15.498000144958496,-7.5879998207092285 -15.498000144958496,-7.5879998207092285 -15.498000144958496,-7.5879998207092285 C-15.498000144958496,-1.4529999494552612 -15.498000144958496,6.927999973297119 -15.498000144958496,11.116000175476074 C-15.498000144958496,11.116000175476074 -15.498000144958496,18.70400047302246 -15.498000144958496,18.70400047302246"/></g></g></g></g></svg>