<svg xmlns="http://www.w3.org/2000/svg" xmlns:xlink="http://www.w3.org/1999/xlink" viewBox="0 0 430 430" width="430" height="430" preserveAspectRatio="xMidYMid meet" style="width: 100%; height: 100%; transform: translate3d(0px, 0px, 0px); content-visibility: visible;"><defs><clipPath id="__lottie_element_5978"><rect width="430" height="430" x="0" y="0"/></clipPath><clipPath id="__lottie_element_5980"><path d="M0,0 L430,0 L430,430 L0,430z"/></clipPath><clipPath id="__lottie_element_5985"><path d="M0,0 L430,0 L430,430 L0,430z"/></clipPath></defs><g clip-path="url(#__lottie_element_5978)"><g clip-path="url(#__lottie_element_5980)" transform="matrix(1,0,0,1,0,0)" opacity="1" style="display: block;"><g clip-path="url(#__lottie_element_5985)" transform="matrix(1,0,0,1,0,0)" opacity="1" style="display: block;"><g transform="matrix(5.275599956512451,0,0,5.275599956512451,325.0899963378906,190.02000427246094)" opacity="1" style="display: block;"><g opacity="1" transform="matrix(1,0,0,1,0,0)"><path stroke-linecap="round" stroke-linejoin="round" fill-opacity="0" class="secondary" stroke="rgb(255,255,255)" stroke-opacity="1" stroke-width="3.6750000000000003" d=" M-9.925999641418457,-16.437000274658203 C-9.925999641418457,-16.437000274658203 -9.925999641418457,-22.229000091552734 -9.925999641418457,-22.229000091552734 C-9.925999641418457,-22.229000091552734 -0.9909999966621399,-22.229000091552734 -0.9909999966621399,-22.229000091552734 C-0.9909999966621399,-22.229000091552734 -0.9909999966621399,-8.105999946594238 -0.9909999966621399,-8.105999946594238"/></g><g opacity="0" transform="matrix(1,0,0,1,0,0)"><path stroke-linecap="round" stroke-linejoin="round" fill-opacity="0" class="secondary" stroke="rgb(255,255,255)" stroke-opacity="1" stroke-width="3.6750000000000003" d=" M-14.814000129699707,-14.5 C-14.814000129699707,-14.5 -14.814000129699707,-18.815000534057617 -14.814000129699707,-18.815000534057617 C-14.814000129699707,-18.815000534057617 -14.883000373840332,-18.815000534057617 -14.883000373840332,-18.815000534057617 C-14.883000373840332,-18.815000534057617 -14.883000373840332,-8.295000076293945 -14.883000373840332,-8.295000076293945"/></g><g opacity="0" transform="matrix(1,0,0,1,0,0)"><path stroke-linecap="round" stroke-linejoin="round" fill-opacity="0" class="secondary" stroke="rgb(255,255,255)" stroke-opacity="1" stroke-width="3.6750000000000003" d=" M-1.003000020980835,-8.189000129699707 C-1.003000020980835,-8.189000129699707 -0.9900000095367432,-22.15399932861328 -0.9900000095367432,-22.15399932861328 C-0.9900000095367432,-22.15399932861328 -0.9829999804496765,-22.166000366210938 -0.9829999804496765,-22.166000366210938 C-0.9829999804496765,-22.166000366210938 -0.9829999804496765,-8.107000350952148 -0.9829999804496765,-8.107000350952148"/></g></g><g transform="matrix(5.275599956512451,0,0,5.275599956512451,325.0899963378906,190.02000427246094)" opacity="1" style="display: block;"><g opacity="1" transform="matrix(1,0,0,1,0,0)"><path stroke-linecap="round" stroke-linejoin="round" fill-opacity="0" class="secondary" stroke="rgb(255,255,255)" stroke-opacity="1" stroke-width="3.6750000000000003" d=" M-28.242000579833984,35.91699981689453 C-28.242000579833984,35.91699981689453 -28.242000579833984,9.715999603271484 -28.242000579833984,9.715999603271484 C-28.242000579833984,9.715999603271484 -12.387999534606934,9.715999603271484 -12.387999534606934,9.715999603271484 C-12.387999534606934,9.715999603271484 -12.387999534606934,35.91699981689453 -12.387999534606934,35.91699981689453"/></g><g opacity="1" transform="matrix(1,0,0,1,0,0)"><path stroke-linecap="round" stroke-linejoin="round" fill-opacity="0" class="primary" stroke="rgb(255,255,255)" stroke-opacity="1" stroke-width="3.6750000000000003" d=" M-51.58100128173828,3.2839999198913574 C-51.58100128173828,3.2839999198913574 -20.315000534057617,-25.29400062561035 -20.315000534057617,-25.29400062561035 C-20.315000534057617,-25.29400062561035 10.51099967956543,3.2839999198913574 10.51099967956543,3.2839999198913574"/></g><g opacity="1" transform="matrix(1,0,0,1,0,0)"><path stroke-linecap="round" stroke-linejoin="round" fill-opacity="0" class="primary" stroke="rgb(255,255,255)" stroke-opacity="1" stroke-width="3.6750000000000003" d=" M-45.71200180053711,-1.2940000295639038 C-45.71200180053711,-1.2940000295639038 -45.71200180053711,-1.184000015258789 -45.71200180053711,-1.184000015258789 C-45.71200180053711,-1.184000015258789 -45.71200180053711,35.91699981689453 -45.71200180053711,35.91699981689453 C-45.71200180053711,35.91699981689453 4.758999824523926,35.91699981689453 4.758999824523926,35.91699981689453 C4.758999824523926,35.91699981689453 4.75,-1.9930000305175781 4.75,-1.9930000305175781"/></g></g></g></g></g></svg>