<svg xmlns="http://www.w3.org/2000/svg" xmlns:xlink="http://www.w3.org/1999/xlink" viewBox="0 0 430 430" width="430" height="430" preserveAspectRatio="xMidYMid meet" style="width: 100%; height: 100%; transform: translate3d(0px, 0px, 0px); content-visibility: visible;"><defs><clipPath id="__lottie_element_3859"><rect width="430" height="430" x="0" y="0"/></clipPath><clipPath id="__lottie_element_3861"><path d="M0,0 L430,0 L430,430 L0,430z"/></clipPath></defs><g clip-path="url(#__lottie_element_3859)"><g clip-path="url(#__lottie_element_3861)" transform="matrix(1,0,0,1,0,0)" opacity="1" style="display: block;"><g transform="matrix(1,0,0,1,215,215)" opacity="1" style="display: block;"><g opacity="1" transform="matrix(1,0,0,1,0,0)"><path stroke-linecap="round" stroke-linejoin="round" fill-opacity="0" class="secondary" stroke="rgb(255,255,255)" stroke-opacity="1" stroke-width="18.9" d=" M169.26800537109375,-131.32000732421875 C165.39999389648438,-134.09100341796875 162.8800048828125,-138.62399291992188 162.8800048828125,-143.7449951171875 C162.8800048828125,-152.18099975585938 156.04200744628906,-159.0189971923828 147.6060028076172,-159.0189971923828 C139.1699981689453,-159.0189971923828 132.33200073242188,-152.18099975585938 132.33200073242188,-143.7449951171875 C132.33200073242188,-135.3090057373047 125.49400329589844,-128.4709930419922 117.05799865722656,-128.4709930419922 C108.62200164794922,-128.4709930419922 101.78399658203125,-135.3090057373047 101.78399658203125,-143.7449951171875 C101.78399658203125,-152.18099975585938 94.94599914550781,-159.0189971923828 86.51000213623047,-159.0189971923828 C78.0739974975586,-159.0189971923828 71.23600006103516,-152.18099975585938 71.23600006103516,-143.7449951171875 C71.23600006103516,-135.3090057373047 64.39800262451172,-128.4709930419922 55.96200180053711,-128.4709930419922 C47.5260009765625,-128.4709930419922 40.6879997253418,-135.3090057373047 40.6879997253418,-143.7449951171875 C40.6879997253418,-152.18099975585938 33.85100173950195,-159.0189971923828 25.415000915527344,-159.0189971923828 C16.979000091552734,-159.0189971923828 10.140999794006348,-152.18099975585938 10.140999794006348,-143.7449951171875 C10.140999794006348,-135.3090057373047 3.302999973297119,-128.4709930419922 -5.132999897003174,-128.4709930419922 C-8.944000244140625,-128.4709930419922 -12.428000450134277,-129.86599731445312 -15.104000091552734,-132.1739959716797"/></g><g opacity="1" transform="matrix(1,0,0,1,0,0)"><path stroke-linecap="round" stroke-linejoin="round" fill-opacity="0" class="secondary" stroke="rgb(255,255,255)" stroke-opacity="1" stroke-width="18.9" d=" M-128.12899780273438,159.9459991455078 C-128.12899780273438,159.9459991455078 -128.12899780273438,73.21499633789062 -128.12899780273438,73.21499633789062 C-128.12899780273438,73.21499633789062 -87.94200134277344,73.21499633789062 -87.94200134277344,73.21499633789062 C-87.94200134277344,73.21499633789062 -87.94200134277344,159.9459991455078 -87.94200134277344,159.9459991455078"/></g><g opacity="1" transform="matrix(1,0,0,1,0,0)"><path stroke-linecap="round" stroke-linejoin="round" fill-opacity="0" class="primary" stroke="rgb(255,255,255)" stroke-opacity="1" stroke-width="18.9" d=" M-156.3679962158203,159.9459991455078 C-156.3679962158203,159.9459991455078 154.97500610351562,159.9459991455078 154.97500610351562,159.9459991455078 C154.97500610351562,159.9459991455078 154.97500610351562,-29.083999633789062 154.97500610351562,-29.083999633789062 C154.97500610351562,-29.083999633789062 77.13899993896484,48.75199890136719 77.13899993896484,48.75199890136719 C77.13899993896484,48.75199890136719 77.13899993896484,-29.083999633789062 77.13899993896484,-29.083999633789062 C77.13899993896484,-29.083999633789062 -0.6959999799728394,48.75199890136719 -0.6959999799728394,48.75199890136719 C-0.6959999799728394,48.75199890136719 -0.6959999799728394,-29.083999633789062 -0.6959999799728394,-29.083999633789062 C-0.6959999799728394,-29.083999633789062 -78.53199768066406,48.75199890136719 -78.53199768066406,48.75199890136719 C-78.53199768066406,48.75199890136719 -89.6510009765625,-106.91999816894531 -89.6510009765625,-106.91999816894531 C-89.6510009765625,-106.91999816894531 -134.12899780273438,-106.91999816894531 -134.12899780273438,-106.91999816894531 C-134.12899780273438,-106.91999816894531 -156.3679962158203,48.75199890136719 -156.3679962158203,48.75199890136719 C-156.3679962158203,48.75199890136719 -156.3679962158203,159.9459991455078 -156.3679962158203,159.9459991455078z"/></g><g opacity="1" transform="matrix(1,0,0,1,0,0)"><path stroke-linecap="round" stroke-linejoin="round" fill-opacity="0" class="secondary" stroke="rgb(255,255,255)" stroke-opacity="1" stroke-width="18.9" d=" M18.64699935913086,108.99700164794922 C18.64699935913086,108.99700164794922 -61.41299819946289,108.99700164794922 -61.41299819946289,108.99700164794922 C-61.41299819946289,108.99700164794922 -61.41299819946289,77.46199798583984 -61.41299819946289,77.46199798583984 C-61.41299819946289,77.46199798583984 18.64699935913086,77.46199798583984 18.64699935913086,77.46199798583984 C18.64699935913086,77.46199798583984 18.64699935913086,108.99700164794922 18.64699935913086,108.99700164794922z"/></g><g opacity="1" transform="matrix(1,0,0,1,0,0)"><path stroke-linecap="round" stroke-linejoin="round" fill-opacity="0" class="secondary" stroke="rgb(255,255,255)" stroke-opacity="1" stroke-width="18.9" d=" M125.39299774169922,108.99700164794922 C125.39299774169922,108.99700164794922 45.33300018310547,108.99700164794922 45.33300018310547,108.99700164794922 C45.33300018310547,108.99700164794922 45.33300018310547,77.46199798583984 45.33300018310547,77.46199798583984 C45.33300018310547,77.46199798583984 125.39299774169922,77.46199798583984 125.39299774169922,77.46199798583984 C125.39299774169922,77.46199798583984 125.39299774169922,108.99700164794922 125.39299774169922,108.99700164794922z"/></g></g></g></g></svg>