<svg xmlns="http://www.w3.org/2000/svg" xmlns:xlink="http://www.w3.org/1999/xlink" viewBox="0 0 430 430" width="430" height="430" preserveAspectRatio="xMidYMid meet" style="width: 100%; height: 100%; transform: translate3d(0px, 0px, 0px); content-visibility: visible;"><defs><clipPath id="__lottie_element_2171"><rect width="430" height="430" x="0" y="0"/></clipPath><clipPath id="__lottie_element_2173"><path d="M0,0 L430,0 L430,430 L0,430z"/></clipPath></defs><g clip-path="url(#__lottie_element_2171)"><g clip-path="url(#__lottie_element_2173)" transform="matrix(1,0,0,1,0,0)" opacity="1" style="display: block;"><g transform="matrix(1,0,0,1,215,215)" opacity="1" style="display: block;"><g opacity="1" transform="matrix(1,0,0,1,0,0)"><path stroke-linecap="round" stroke-linejoin="round" fill-opacity="0" class="secondary" stroke="rgb(8,168,138)" stroke-opacity="1" stroke-width="12.6" d=" M75.01399993896484,-153.802001953125 C72.66200256347656,-151.11599731445312 71.23600006103516,-147.5970001220703 71.23600006103516,-143.7449951171875 C71.23600006103516,-135.3090057373047 64.39800262451172,-128.4709930419922 55.96200180053711,-128.4709930419922 C47.5260009765625,-128.4709930419922 40.6879997253418,-135.3090057373047 40.6879997253418,-143.7449951171875 C40.6879997253418,-152.18099975585938 33.85100173950195,-159.0189971923828 25.415000915527344,-159.0189971923828 C16.979000091552734,-159.0189971923828 10.140999794006348,-152.18099975585938 10.140999794006348,-143.7449951171875 C10.140999794006348,-135.3090057373047 3.302999973297119,-128.4709930419922 -5.132999897003174,-128.4709930419922 C-13.569000244140625,-128.4709930419922 -20.406999588012695,-135.3090057373047 -20.406999588012695,-143.7449951171875 C-20.406999588012695,-152.18099975585938 -27.2450008392334,-159.0189971923828 -35.680999755859375,-159.0189971923828 C-44.117000579833984,-159.0189971923828 -50.95500183105469,-152.18099975585938 -50.95500183105469,-143.7449951171875 C-50.95500183105469,-135.3090057373047 -57.792999267578125,-128.4709930419922 -66.22899627685547,-128.4709930419922 C-74.66500091552734,-128.4709930419922 -81.50299835205078,-135.3090057373047 -81.50299835205078,-143.7449951171875 C-81.50299835205078,-152.18099975585938 -88.34100341796875,-159.0189971923828 -96.7770004272461,-159.0189971923828 C-101.85700225830078,-159.0189971923828 -106.35800170898438,-156.53900146484375 -109.13500213623047,-152.7239990234375"/></g><g opacity="1" transform="matrix(1,0,0,1,0,0)"><path stroke-linecap="round" stroke-linejoin="round" fill-opacity="0" class="secondary" stroke="rgb(8,168,138)" stroke-opacity="1" stroke-width="12.6" d=" M-128.12899780273438,159.9459991455078 C-128.12899780273438,159.9459991455078 -128.12899780273438,73.21499633789062 -128.12899780273438,73.21499633789062 C-128.12899780273438,73.21499633789062 -87.94200134277344,73.21499633789062 -87.94200134277344,73.21499633789062 C-87.94200134277344,73.21499633789062 -87.94200134277344,159.9459991455078 -87.94200134277344,159.9459991455078"/></g><g opacity="1" transform="matrix(1,0,0,1,0,0)"><path stroke-linecap="round" stroke-linejoin="round" fill-opacity="0" class="primary" stroke="rgb(18,19,49)" stroke-opacity="1" stroke-width="12.6" d=" M-156.3679962158203,159.9459991455078 C-156.3679962158203,159.9459991455078 154.97500610351562,159.9459991455078 154.97500610351562,159.9459991455078 C154.97500610351562,159.9459991455078 154.97500610351562,-29.083999633789062 154.97500610351562,-29.083999633789062 C154.97500610351562,-29.083999633789062 77.13899993896484,48.75199890136719 77.13899993896484,48.75199890136719 C77.13899993896484,48.75199890136719 77.13899993896484,-29.083999633789062 77.13899993896484,-29.083999633789062 C77.13899993896484,-29.083999633789062 -0.6959999799728394,48.75199890136719 -0.6959999799728394,48.75199890136719 C-0.6959999799728394,48.75199890136719 -0.6959999799728394,-29.083999633789062 -0.6959999799728394,-29.083999633789062 C-0.6959999799728394,-29.083999633789062 -78.53199768066406,48.75199890136719 -78.53199768066406,48.75199890136719 C-78.53199768066406,48.75199890136719 -89.6510009765625,-106.91999816894531 -89.6510009765625,-106.91999816894531 C-89.6510009765625,-106.91999816894531 -134.12899780273438,-106.91999816894531 -134.12899780273438,-106.91999816894531 C-134.12899780273438,-106.91999816894531 -156.3679962158203,48.75199890136719 -156.3679962158203,48.75199890136719 C-156.3679962158203,48.75199890136719 -156.3679962158203,159.9459991455078 -156.3679962158203,159.9459991455078z"/></g><g opacity="1" transform="matrix(1,0,0,1,0,0)"><path stroke-linecap="round" stroke-linejoin="round" fill-opacity="0" class="secondary" stroke="rgb(8,168,138)" stroke-opacity="1" stroke-width="12.6" d=" M18.64699935913086,108.99700164794922 C18.64699935913086,108.99700164794922 -61.41299819946289,108.99700164794922 -61.41299819946289,108.99700164794922 C-61.41299819946289,108.99700164794922 -61.41299819946289,77.46199798583984 -61.41299819946289,77.46199798583984 C-61.41299819946289,77.46199798583984 18.64699935913086,77.46199798583984 18.64699935913086,77.46199798583984 C18.64699935913086,77.46199798583984 18.64699935913086,108.99700164794922 18.64699935913086,108.99700164794922z"/></g><g opacity="1" transform="matrix(1,0,0,1,0,0)"><path stroke-linecap="round" stroke-linejoin="round" fill-opacity="0" class="secondary" stroke="rgb(8,168,138)" stroke-opacity="1" stroke-width="12.6" d=" M125.39299774169922,108.99700164794922 C125.39299774169922,108.99700164794922 45.33300018310547,108.99700164794922 45.33300018310547,108.99700164794922 C45.33300018310547,108.99700164794922 45.33300018310547,77.46199798583984 45.33300018310547,77.46199798583984 C45.33300018310547,77.46199798583984 125.39299774169922,77.46199798583984 125.39299774169922,77.46199798583984 C125.39299774169922,77.46199798583984 125.39299774169922,108.99700164794922 125.39299774169922,108.99700164794922z"/></g></g></g></g></svg>