<svg xmlns="http://www.w3.org/2000/svg" xmlns:xlink="http://www.w3.org/1999/xlink" viewBox="0 0 430 430" width="430" height="430" preserveAspectRatio="xMidYMid meet" style="width: 100%; height: 100%; transform: translate3d(0px, 0px, 0px); content-visibility: visible;"><defs><clipPath id="__lottie_element_4455"><rect width="430" height="430" x="0" y="0"/></clipPath><clipPath id="__lottie_element_4457"><path d="M0,0 L430,0 L430,430 L0,430z"/></clipPath></defs><g clip-path="url(#__lottie_element_4455)"><g clip-path="url(#__lottie_element_4457)" transform="matrix(1,0,0,1,0,0)" opacity="1" style="display: block;"><g transform="matrix(1,0,0,1,215,215)" opacity="1" style="display: block;"><g opacity="1" transform="matrix(1,0,0,1,0,0)"><path stroke-linecap="round" stroke-linejoin="round" fill-opacity="0" class="primary" stroke="rgb(255,255,255)" stroke-opacity="1" stroke-width="18" d=" M-160,-160 C-160,-160 -160,160 -160,160 C-160,160 160,160 160,160"/></g></g><g transform="matrix(-1,0,0,1,240,214.14199829101562)" opacity="1" style="display: block;"><g opacity="1" transform="matrix(0.7071067690849304,-0.7071067690849304,0.7071067690849304,0.7071067690849304,0,0)"><path stroke-linecap="round" stroke-linejoin="miter" fill-opacity="0" stroke-miterlimit="4" class="secondary" stroke="rgb(255,255,255)" stroke-opacity="1" stroke-width="18" d=" M42.90879821777344,6.540999889373779 C42.90879821777344,6.540999889373779 -23.435760498046875,-2.068296432495117 -23.435760498046875,-2.068296432495117"/></g></g><g transform="matrix(1,0,0,1,145,237.5)" opacity="1" style="display: block;"><g opacity="1" transform="matrix(0.7071067690849304,-0.7071067690849304,0.7071067690849304,0.7071067690849304,0,0)"><path stroke-linecap="round" stroke-linejoin="miter" fill-opacity="0" stroke-miterlimit="4" class="secondary" stroke="rgb(255,255,255)" stroke-opacity="1" stroke-width="18" d=" M48.865440368652344,-10.607000350952148 C48.865440368652344,-10.607000350952148 -49.604366302490234,10.607000350952148 -49.604366302490234,10.607000350952148"/></g></g><g transform="matrix(1,0,0,1,315,185)" opacity="1" style="display: block;"><g opacity="1" transform="matrix(0.7071067690849304,-0.7071067690849304,0.7071067690849304,0.7071067690849304,0,0)"><path stroke-linecap="round" stroke-linejoin="miter" fill-opacity="0" stroke-miterlimit="4" class="secondary" stroke="rgb(255,255,255)" stroke-opacity="1" stroke-width="18" d=" M-15.328568458557129,2.4273123741149902 C-15.328568458557129,2.4273123741149902 -47.9536247253418,8.85944652557373 -47.9536247253418,8.85944652557373"/></g></g><g transform="matrix(1,0,0,1,105,300)" opacity="1" style="display: block;"><g opacity="1" transform="matrix(1,0,0,1,0,0)"><path stroke-linecap="butt" stroke-linejoin="miter" fill-opacity="0" stroke-miterlimit="4" class="secondary" stroke="rgb(255,255,255)" stroke-opacity="1" stroke-width="18" d=" M0,-21.997982025146484 C12.14068603515625,-21.997982025146484 21.997982025146484,-12.14068603515625 21.997982025146484,0 C21.997982025146484,12.14068603515625 12.14068603515625,21.997982025146484 0,21.997982025146484 C-12.14068603515625,21.997982025146484 -21.997982025146484,12.14068603515625 -21.997982025146484,0 C-21.997982025146484,-12.14068603515625 -12.14068603515625,-21.997982025146484 0,-21.997982025146484z"/></g></g><g transform="matrix(1,0,0,1,185,175)" opacity="1" style="display: block;"><g opacity="1" transform="matrix(1,0,0,1,0,0)"><path stroke-linecap="butt" stroke-linejoin="miter" fill-opacity="0" stroke-miterlimit="4" class="secondary" stroke="rgb(255,255,255)" stroke-opacity="1" stroke-width="18" d=" M0,-23.362268447875977 C12.893635749816895,-23.362268447875977 23.362268447875977,-12.893635749816895 23.362268447875977,0 C23.362268447875977,12.893635749816895 12.893635749816895,23.362268447875977 0,23.362268447875977 C-12.893635749816895,23.362268447875977 -23.362268447875977,12.893635749816895 -23.362268447875977,0 C-23.362268447875977,-12.893635749816895 -12.893635749816895,-23.362268447875977 0,-23.362268447875977z"/></g></g><g transform="matrix(1,0,0,1,275,245)" opacity="1" style="display: block;"><g opacity="1" transform="matrix(1,0,0,1,0,0)"><path stroke-linecap="butt" stroke-linejoin="miter" fill-opacity="0" stroke-miterlimit="4" class="secondary" stroke="rgb(255,255,255)" stroke-opacity="1" stroke-width="18" d=" M0,-22.808910369873047 C12.588237762451172,-22.808910369873047 22.808910369873047,-12.588237762451172 22.808910369873047,0 C22.808910369873047,12.588237762451172 12.588237762451172,22.808910369873047 0,22.808910369873047 C-12.588237762451172,22.808910369873047 -22.808910369873047,12.588237762451172 -22.808910369873047,0 C-22.808910369873047,-12.588237762451172 -12.588237762451172,-22.808910369873047 0,-22.808910369873047z"/></g></g><g transform="matrix(1,0,0,1,355,125)" opacity="1" style="display: block;"><g opacity="1" transform="matrix(1,0,0,1,0,0)"><path stroke-linecap="butt" stroke-linejoin="miter" fill-opacity="0" stroke-miterlimit="4" class="secondary" stroke="rgb(255,255,255)" stroke-opacity="1" stroke-width="18" d=" M0,-19.18340492248535 C10.587321281433105,-19.18340492248535 19.18340492248535,-10.587321281433105 19.18340492248535,0 C19.18340492248535,10.587321281433105 10.587321281433105,19.18340492248535 0,19.18340492248535 C-10.587321281433105,19.18340492248535 -19.18340492248535,10.587321281433105 -19.18340492248535,0 C-19.18340492248535,-10.587321281433105 -10.587321281433105,-19.18340492248535 0,-19.18340492248535z"/></g></g><g transform="matrix(1,0,0,1,145,237.5)" opacity="1" style="display: none;"><g opacity="1" transform="matrix(0.7071067690849304,-0.7071067690849304,0.7071067690849304,0.7071067690849304,0,0)"><path stroke-linecap="round" stroke-linejoin="miter" fill-opacity="0" stroke-miterlimit="4" class="secondary" stroke="rgb(255,255,255)" stroke-opacity="1" stroke-width="18" d=" M63.2859992980957,-14.142000198364258 C63.2859992980957,-14.142000198364258 62.93299865722656,-14.848999977111816 62.93299865722656,-14.848999977111816"/></g></g><g transform="matrix(-1,0,0,1,240,214.14199829101562)" opacity="1" style="display: none;"><g opacity="1" transform="matrix(0.7071067690849304,-0.7071067690849304,0.7071067690849304,0.7071067690849304,0,0)"><path stroke-linecap="round" stroke-linejoin="miter" fill-opacity="0" stroke-miterlimit="4" class="secondary" stroke="rgb(255,255,255)" stroke-opacity="1" stroke-width="18" d=" M-43.66400146484375,-2.6519999504089355 C-43.66400146484375,-2.6519999504089355 -43.48699951171875,-3.181999921798706 -43.48699951171875,-3.181999921798706"/></g></g><g transform="matrix(1,0,0,1,315,185)" opacity="1" style="display: none;"><g opacity="1" transform="matrix(0.7071067690849304,-0.7071067690849304,0.7071067690849304,0.7071067690849304,0,0)"><path stroke-linecap="round" stroke-linejoin="miter" fill-opacity="0" stroke-miterlimit="4" class="secondary" stroke="rgb(255,255,255)" stroke-opacity="1" stroke-width="18" d=" M70.00399780273438,-14.142000198364258 C70.00399780273438,-14.142000198364258 70.71099853515625,-14.142000198364258 70.71099853515625,-14.142000198364258"/></g></g><g transform="matrix(1,0,0,1,105,300)" opacity="1" style="display: none;"><g opacity="1" transform="matrix(1,0,0,1,0,0)"><path stroke-linecap="butt" stroke-linejoin="miter" fill-opacity="0" stroke-miterlimit="4" class="secondary" stroke="rgb(255,255,255)" stroke-opacity="1" stroke-width="18" d=" M0,-1 C0.5519000291824341,-1 1,-0.5519000291824341 1,0 C1,0.5519000291824341 0.5519000291824341,1 0,1 C-0.5519000291824341,1 -1,0.5519000291824341 -1,0 C-1,-0.5519000291824341 -0.5519000291824341,-1 0,-1z"/></g></g><g transform="matrix(1,0,0,1,185,175)" opacity="1" style="display: none;"><g opacity="1" transform="matrix(1,0,0,1,0,0)"><path stroke-linecap="butt" stroke-linejoin="miter" fill-opacity="0" stroke-miterlimit="4" class="secondary" stroke="rgb(255,255,255)" stroke-opacity="1" stroke-width="18" d=" M0,-1 C0.5519000291824341,-1 1,-0.5519000291824341 1,0 C1,0.5519000291824341 0.5519000291824341,1 0,1 C-0.5519000291824341,1 -1,0.5519000291824341 -1,0 C-1,-0.5519000291824341 -0.5519000291824341,-1 0,-1z"/></g></g><g transform="matrix(1,0,0,1,275,245)" opacity="1" style="display: none;"><g opacity="1" transform="matrix(1,0,0,1,0,0)"><path stroke-linecap="butt" stroke-linejoin="miter" fill-opacity="0" stroke-miterlimit="4" class="secondary" stroke="rgb(255,255,255)" stroke-opacity="1" stroke-width="18" d=" M0,-1 C0.5519000291824341,-1 1,-0.5519000291824341 1,0 C1,0.5519000291824341 0.5519000291824341,1 0,1 C-0.5519000291824341,1 -1,0.5519000291824341 -1,0 C-1,-0.5519000291824341 -0.5519000291824341,-1 0,-1z"/></g></g><g transform="matrix(1,0,0,1,355,125)" opacity="1" style="display: none;"><g opacity="1" transform="matrix(1,0,0,1,0,0)"><path stroke-linecap="butt" stroke-linejoin="miter" fill-opacity="0" stroke-miterlimit="4" class="secondary" stroke="rgb(255,255,255)" stroke-opacity="1" stroke-width="18" d=" M0,-1 C0.5519000291824341,-1 1,-0.5519000291824341 1,0 C1,0.5519000291824341 0.5519000291824341,1 0,1 C-0.5519000291824341,1 -1,0.5519000291824341 -1,0 C-1,-0.5519000291824341 -0.5519000291824341,-1 0,-1z"/></g></g></g></g></svg>