<?xml version="1.0" encoding="UTF-8" standalone="no"?>
<!-- Created with Inkscape (http://www.inkscape.org/) -->

<svg
   width="307.82495"
   height="307.69995"
   viewBox="0 0 307.82495 307.69995"
   version="1.1"
   id="svg1"
   inkscape:version="1.3.2 (091e20e, 2023-11-25, custom)"
   sodipodi:docname="Manual_1_2_neu.svg"
   xml:space="preserve"
   xmlns:inkscape="http://www.inkscape.org/namespaces/inkscape"
   xmlns:sodipodi="http://sodipodi.sourceforge.net/DTD/sodipodi-0.dtd"
   xmlns="http://www.w3.org/2000/svg"
   xmlns:svg="http://www.w3.org/2000/svg"><sodipodi:namedview
     id="namedview1"
     pagecolor="#ffffff"
     bordercolor="#000000"
     borderopacity="0.25"
     inkscape:showpageshadow="2"
     inkscape:pageopacity="0.0"
     inkscape:pagecheckerboard="0"
     inkscape:deskcolor="#d1d1d1"
     inkscape:document-units="px"
     inkscape:zoom="2.6681838"
     inkscape:cx="154.03736"
     inkscape:cy="153.84997"
     inkscape:window-width="1920"
     inkscape:window-height="1017"
     inkscape:window-x="-8"
     inkscape:window-y="-8"
     inkscape:window-maximized="1"
     inkscape:current-layer="layer1" /><defs
     id="defs1" /><g
     inkscape:groupmode="layer"
     id="layer4"
     inkscape:label="Layer 2"><rect
       style="fill:#00a1d1;stroke:#00a1d1;stroke-width:1.15224"
       id="rect1"
       width="306.67276"
       height="306.54776"
       x="0.57612193"
       y="0.57612193"
       ry="56.43771" /></g><g
     inkscape:label="Layer 1"
     inkscape:groupmode="layer"
     id="layer1"
     style="display:inline"
     transform="translate(-1543.5768,-1433.286)"><rect
       style="display:inline;fill:none;fill-opacity:1;stroke:#f9f9f9;stroke-width:6.40853;stroke-dasharray:none;stroke-opacity:1;paint-order:fill markers stroke"
       id="rect11-3-8-6"
       width="62.550671"
       height="0.79382658"
       x="1707.6119"
       y="1515.2789" /><rect
       style="display:inline;fill:none;fill-opacity:1;stroke:#f9f9f9;stroke-width:6.83931;stroke-dasharray:none;stroke-opacity:1;paint-order:fill markers stroke"
       id="rect11-5-5-5-4"
       width="53.166485"
       height="1.0637205"
       x="1515.9573"
       y="-1769.9386"
       transform="rotate(90)" /><path
       sodipodi:type="star"
       style="display:inline;fill:#f9f9f9;fill-opacity:1;stroke:#f9f9f9;stroke-width:5.278;stroke-dasharray:none;stroke-opacity:1;paint-order:fill markers stroke"
       id="path11-4-8-0"
       inkscape:flatsided="true"
       sodipodi:sides="3"
       sodipodi:cx="1724.0035"
       sodipodi:cy="253.80643"
       sodipodi:r1="36.286163"
       sodipodi:r2="18.143082"
       sodipodi:arg1="-0.52857171"
       sodipodi:arg2="0.51862584"
       inkscape:rounded="0"
       inkscape:randomized="0"
       d="m 1755.3377,235.5073 -31.1537,54.58484 -31.695,-54.2723 z"
       inkscape:transform-center-x="0.04805914"
       inkscape:transform-center-y="4.1800496"
       transform="matrix(0.69368567,0,0,0.55929622,573.1641,1439.9817)" /><rect
       style="display:inline;fill:#f9f9f9;fill-opacity:1;stroke:#f9f9f9;stroke-width:5.278;stroke-dasharray:none;stroke-opacity:1;paint-order:fill markers stroke"
       id="rect13-6-58-1"
       width="95.716393"
       height="98.552437"
       x="1721.2845"
       y="1618.6687"
       ry="16.661743" /><rect
       style="display:inline;fill:#f9f9f9;fill-opacity:1;stroke:#00a1d1;stroke-width:4;stroke-dasharray:none;stroke-opacity:1;paint-order:fill markers stroke"
       id="rect13-6-3-7-6"
       width="96.251854"
       height="31.406193"
       x="1721.5328"
       y="1617.1976"
       ry="15.703096" /><g
       id="g18-9-5-7-9"
       transform="translate(314.6653,1332.8254)"
       style="display:inline;stroke:#00a1d1;stroke-opacity:1"><path
         style="fill:#f9f9f9;fill-opacity:1;stroke:#00a1d1;stroke-width:5.278;stroke-dasharray:none;stroke-opacity:1;paint-order:fill markers stroke"
         d="m 1291.7399,304.2769 c 0,0 -0.4928,-15.46719 -1.3787,-23.31259 -1.1841,-10.48706 -16.6469,-12.44786 -22.6859,-21.3072 -12.1536,-17.82973 -13.6758,-47.45101 -21.5579,-61.03888 -1.2333,-2.12605 4.4819,-3.47064 6.2669,-3.88542 5.3753,-1.24904 11.1549,1.62936 11.1549,1.62936 0,0 6.0612,2.54631 10.5282,8.02154 7.341,8.99765 9.9555,17.12592 12.0324,28.70205 2.0704,11.54 -2.6662,-27.74021 -2.6662,-27.74021 0,0 -0.1391,-56.18388 0.4454,-66.69009 0.5846,-10.5062 4.6084,-15.37362 11.1728,-15.54694 4.4891,-0.11852 11.7692,1.16847 11.7474,15.6308 -0.055,36.82423 0,74.53976 0,66.60623 0,-8.34394 -0.2748,-18.98302 0,-66.69009 0.04,-6.88831 -0.2926,-17.99198 8.2745,-20.84886 3.8787,-1.29343 10.6414,-0.24062 13.6694,8.06099 1.1052,3.02976 1.5864,7.28298 1.5991,12.78787 0.021,9.13662 -0.6748,39.30897 -0.1773,66.69009 0.2223,6.10625 -0.058,-36.85281 0,-66.69009 0.013,-6.66624 0.045,-14.21991 10.2053,-13.98576 9.42,0.2171 10.1458,10.33066 10.4422,13.80851 2.293,26.91296 2.1839,49.68843 2.7181,66.86734 0.2254,7.24845 -1.1932,-27.70919 0,-53.81083 0.2462,-5.38558 4.8067,-9.64187 12.0323,-8.5659 6.6429,0.98919 8.214,6.12659 8.6483,11.28029 2.7893,33.10359 6.1954,60.72972 0.6266,93.62637 -1.8504,10.93108 -8.9729,19.46847 -12.1576,30.95811 -2.2432,8.09284 -1.7547,25.56865 -1.7547,25.56865 z"
         id="path18-4-3-9-6-1-3"
         sodipodi:nodetypes="csssscssczssssssscssssssssscc" /><rect
         style="fill:#f9f9f9;stroke:#00a1d1;stroke-width:6;stroke-dasharray:none;stroke-opacity:1;paint-order:fill markers stroke"
         id="rect2-9-1-2-0-0-9-9"
         width="93.751701"
         height="30.582106"
         x="1279.3722"
         y="301.02692"
         ry="8.8426466" /></g></g></svg>
