<?xml version="1.0" encoding="UTF-8" standalone="no"?>
<!-- Created with Inkscape (http://www.inkscape.org/) -->

<svg
   width="306.82373"
   height="306.82379"
   viewBox="0 0 306.82373 306.82379"
   version="1.1"
   id="svg1"
   inkscape:version="1.3.2 (091e20e, 2023-11-25, custom)"
   sodipodi:docname="Indicators.svg"
   xml:space="preserve"
   xmlns:inkscape="http://www.inkscape.org/namespaces/inkscape"
   xmlns:sodipodi="http://sodipodi.sourceforge.net/DTD/sodipodi-0.dtd"
   xmlns="http://www.w3.org/2000/svg"
   xmlns:svg="http://www.w3.org/2000/svg"><sodipodi:namedview
     id="namedview1"
     pagecolor="#ffffff"
     bordercolor="#000000"
     borderopacity="0.25"
     inkscape:showpageshadow="2"
     inkscape:pageopacity="0.0"
     inkscape:pagecheckerboard="0"
     inkscape:deskcolor="#d1d1d1"
     inkscape:document-units="px"
     inkscape:zoom="1.4104167"
     inkscape:cx="277.93204"
     inkscape:cy="225.81978"
     inkscape:window-width="1920"
     inkscape:window-height="1137"
     inkscape:window-x="1912"
     inkscape:window-y="7"
     inkscape:window-maximized="1"
     inkscape:current-layer="layer1" /><defs
     id="defs1" /><g
     inkscape:label="Layer 1"
     inkscape:groupmode="layer"
     id="layer1"
     style="display:inline"
     transform="translate(-401.27252,-347.33649)"><g
       id="g59"
       transform="translate(-10.02692,16.544418)"><g
         id="g12-1-9"
         inkscape:export-filename="locked.svg"
         inkscape:export-xdpi="96"
         inkscape:export-ydpi="96"
         transform="translate(-538.71417,-177.9563)"
         style="display:inline;fill:none"><rect
           style="fill:none"
           id="rect1-3-1-2"
           width="306.82376"
           height="306.82376"
           x="950.01361"
           y="508.74838" /><g
           id="g11-3-4"
           transform="translate(-5.3405762e-5,-15.380716)"
           style="fill:none"><rect
             style="fill:none;stroke-width:0.535788"
             id="rect1-3-5-49-7"
             width="192.51686"
             height="140.37688"
             x="1007.1671"
             y="640.83789"
             ry="16.544418" /><path
             id="rect1-3-5-4-5-7"
             style="fill:none;stroke-width:0.536032"
             d="m 1083.9004,573.86719 c -26.7254,0 -48.2402,21.51678 -48.2402,48.24219 v 22.83789 c 0,26.72541 21.5148,48.24023 48.2402,48.24023 h 37.3789 c 26.7254,0 48.2402,-21.51482 48.2402,-48.24023 v -22.83789 c 0,-26.72541 -21.5148,-48.24219 -48.2402,-48.24219 z m 5.6035,16.30859 h 26.1719 c 19.9905,0 36.084,16.09344 36.084,36.08399 v 17.08398 c 0,19.99055 -16.0935,36.08398 -36.084,36.08398 h -26.1719 c -19.9905,0 -36.084,-16.09343 -36.084,-36.08398 v -17.08398 c 0,-19.99055 16.0935,-36.08399 36.084,-36.08399 z" /><g
             id="g10-3-4"
             style="fill:none"><rect
               style="fill:none;stroke-width:0.142803"
               id="rect1-3-5-3-3-0"
               width="33.590172"
               height="57.153435"
               x="1085.7571"
               y="705.70056"
               ry="6.7359409" /><circle
               style="fill:none;stroke-width:1.797;stroke-dasharray:none;paint-order:fill markers stroke"
               id="path9-0-6"
               cx="1102.7106"
               cy="697.62299"
               r="30.832781" /></g></g></g><g
         id="g27"
         transform="translate(-1844.858,-1214.6972)"
         inkscape:export-filename="..\WinCC_OA_Proj\WCCOA_3_19\MTP_Raima\pictures\SB_unlocked_2.svg"
         inkscape:export-xdpi="96"
         inkscape:export-ydpi="96"><path
           id="rect1-3-5-49-8-6"
           style="display:inline;fill:#cdd3d7;fill-opacity:1;stroke-width:0.535788"
           d="m 2288.3307,1666.6293 c -9.1656,0 -16.5449,7.3793 -16.5449,16.5449 v 107.2891 c 0,9.1656 7.3793,16.5429 16.5449,16.5429 h 159.4278 c 9.1656,0 16.5449,-7.3773 16.5449,-16.5429 v -107.2891 c 0,-9.1656 -7.3793,-16.5449 -16.5449,-16.5449 z m 78.9981,25.9531 a 30.832781,30.832781 0 0 1 30.8339,30.832 30.832781,30.832781 0 0 1 -14.1972,25.9571 v 32.539 c 0,3.7317 -3.0027,6.7364 -6.7344,6.7364 h -20.1191 c -3.7317,0 -6.7364,-3.0047 -6.7364,-6.7364 v -32.7695 a 30.832781,30.832781 0 0 1 -13.8789,-25.7266 30.832781,30.832781 0 0 1 30.8321,-30.832 z" /><path
           id="rect1-3-5-4-5-5-7"
           style="display:inline;fill:#cdd3d7;fill-opacity:1;stroke-width:0.547066"
           d="m 2499.1127,1590.7962 c 26.7254,0 48.2402,22.4131 48.2402,50.25 v 23.7872 c 0,0.7297 -0.023,1.4538 -0.053,2.1757 h -17.8926 c 0.1223,-1.264 0.1855,-2.5469 0.1855,-3.8457 v -17.7949 c 0,-20.8221 -16.0935,-37.584 -36.0839,-37.584 h -26.1719 c -19.9905,0 -36.084,16.7619 -36.084,37.584 v 17.7949 c 0,1.2988 0.063,2.5817 0.1856,3.8457 h -17.8926 c -0.029,-0.7219 -0.053,-1.446 -0.053,-2.1757 v -23.7872 c 0,-27.8369 21.5149,-50.25 48.2403,-50.25 z" /></g></g></g></svg>
