<?xml version="1.0" encoding="UTF-8" standalone="no"?>
<!-- Created with Inkscape (http://www.inkscape.org/) -->

<svg
   width="312.82422"
   height="312.82446"
   viewBox="0 0 312.82422 312.82446"
   version="1.1"
   id="svg1"
   inkscape:version="1.3.2 (091e20e, 2023-11-25, custom)"
   sodipodi:docname="ValveClose4_neu.svg"
   xml:space="preserve"
   xmlns:inkscape="http://www.inkscape.org/namespaces/inkscape"
   xmlns:sodipodi="http://sodipodi.sourceforge.net/DTD/sodipodi-0.dtd"
   xmlns="http://www.w3.org/2000/svg"
   xmlns:svg="http://www.w3.org/2000/svg"><sodipodi:namedview
     id="namedview1"
     pagecolor="#ffffff"
     bordercolor="#000000"
     borderopacity="0.25"
     inkscape:showpageshadow="2"
     inkscape:pageopacity="0.0"
     inkscape:pagecheckerboard="0"
     inkscape:deskcolor="#d1d1d1"
     inkscape:document-units="px"
     inkscape:zoom="2.6244756"
     inkscape:cx="156.22169"
     inkscape:cy="156.4122"
     inkscape:window-width="1920"
     inkscape:window-height="1017"
     inkscape:window-x="-8"
     inkscape:window-y="-8"
     inkscape:window-maximized="1"
     inkscape:current-layer="layer7"
     showgrid="false" /><defs
     id="defs1" /><g
     inkscape:groupmode="layer"
     id="layer7"
     inkscape:label="Layer 2"><rect
       style="fill:#00a1d1;stroke:#999999;stroke-width:6;stroke-dasharray:none"
       id="rect1"
       width="306.39105"
       height="306.39105"
       x="3.2164748"
       y="3.2164748"
       ry="35.054623" /></g><g
     inkscape:label="Layer 1"
     inkscape:groupmode="layer"
     id="layer1"
     style="display:inline"
     transform="translate(-35.162941,-2194.887)"><rect
       style="fill:#ffffff;stroke:#ffffff;stroke-width:14.1968;stroke-linecap:square;paint-order:fill markers stroke"
       id="rect2"
       width="31.927151"
       height="202.90805"
       x="270.10132"
       y="2249.8452" /><rect
       style="display:inline;fill:#ffffff;stroke:#ffffff;stroke-width:14.1968;stroke-linecap:square;paint-order:fill markers stroke"
       id="rect2-2"
       width="31.927151"
       height="202.90805"
       x="89.264687"
       y="2249.8452" /><path
       id="rect2-4-7"
       style="display:inline;fill:#ffffff;stroke:#ffffff;stroke-width:10.3806;stroke-linecap:square;paint-order:fill markers stroke"
       d="m 195.70415,2329.083 a 23.233278,22.216398 0 0 0 -18.06974,8.3205 H 141.737 c -4.62486,0 -8.34738,6.1963 -8.34738,13.8946 0,7.6983 3.72252,13.8966 8.34738,13.8966 h 35.89741 a 23.233278,22.216398 0 0 0 18.06974,8.3205 23.233278,22.216398 0 0 0 18.07176,-8.3205 h 35.89536 c 4.62488,0 8.34943,-6.1983 8.34943,-13.8966 0,-7.6983 -3.72455,-13.8946 -8.34943,-13.8946 h -35.84452 a 23.233278,22.216398 0 0 0 -18.1226,-8.3205 z" /></g></svg>
