<?xml version="1.0" encoding="UTF-8" standalone="no"?>
<svg
   width="413.67407"
   height="308.11548"
   viewBox="0 0 413.67407 308.11548"
   version="1.1"
   id="svg1"
   xml:space="preserve"
   xmlns="http://www.w3.org/2000/svg"
   xmlns:svg="http://www.w3.org/2000/svg"
   role="img"
   aria-labelledby="title desc">
  <title id="title">Process value in icon</title>
  <desc id="desc">A white isometric cube with a left-facing arrow on the same blue rBackground shape as the home icon.</desc>
  <g id="layer1" style="display:inline" transform="translate(-1940.2136,-1439.2526)">
    <g id="g45">
      <path
         id="rBackground"
         style="fill:#00a1d1;fill-opacity:1;stroke:#00a1d1;stroke-width:1.15839;stroke-opacity:1"
         d="m 1972.1697,1439.8317 c -17.2202,0 -31.0839,13.8638 -31.0839,31.084 v 166.0664 c -0.031,0.2728 -0.1289,0.5392 -0.1289,0.8145 v 34.6875 h -0.1641 v 74.3047 h 412.5156 v -74.3047 h -0.168 v -34.6875 c 0,-0.2687 -0.096,-0.5287 -0.125,-0.7949 v -166.086 c 0,-17.2202 -13.8637,-31.084 -31.0839,-31.084 z" />
      <g id="processValueIcon" fill="#ffffff" transform="translate(1963.3006,1465.5603) scale(7.0)">
    <polygon points="12,9 23.5,3 35,9 23.5,15"/>
    <polygon points="12,11 22,16.5 22,28 12,22.5"/>
    <polygon points="25,16.5 35,11 35,17.5 25,23"/>
    <polygon points="24.5,27.5 32.5,21.5 32.5,24.5 40.5,24.5 40.5,30.5 32.5,30.5 32.5,33.5"/>
      </g>
    </g>
  </g>
</svg>
