<?xml version="1.0" encoding="UTF-8" standalone="no"?>
<!-- Created with Inkscape (http://www.inkscape.org/) -->

<svg
   width="307.82373"
   height="307.82385"
   viewBox="0 0 307.82373 307.82385"
   version="1.1"
   id="svg1"
   inkscape:version="1.3.2 (091e20e, 2023-11-25, custom)"
   sodipodi:docname="Operator_1_neu.svg"
   xml:space="preserve"
   xmlns:inkscape="http://www.inkscape.org/namespaces/inkscape"
   xmlns:sodipodi="http://sodipodi.sourceforge.net/DTD/sodipodi-0.dtd"
   xmlns="http://www.w3.org/2000/svg"
   xmlns:svg="http://www.w3.org/2000/svg"><sodipodi:namedview
     id="namedview1"
     pagecolor="#ffffff"
     bordercolor="#000000"
     borderopacity="0.25"
     inkscape:showpageshadow="2"
     inkscape:pageopacity="0.0"
     inkscape:pagecheckerboard="0"
     inkscape:deskcolor="#d1d1d1"
     inkscape:document-units="px"
     inkscape:zoom="2.6671105"
     inkscape:cx="153.72441"
     inkscape:cy="153.91188"
     inkscape:window-width="1920"
     inkscape:window-height="1017"
     inkscape:window-x="-8"
     inkscape:window-y="-8"
     inkscape:window-maximized="1"
     inkscape:current-layer="layer1" /><defs
     id="defs1" /><g
     inkscape:label="Layer 1"
     inkscape:groupmode="layer"
     id="layer1"
     style="display:inline"
     transform="translate(-2276.5156,-1050.4934)"><g
       id="g42"
       transform="translate(-363.01328,-517.37949)"><g
         id="g2"
         transform="translate(2620.5022,762.8951)"
         style="stroke:#00a1d1;stroke-opacity:1"><path
           id="rect1-3-4-8"
           style="fill:#999999;fill-opacity:1;stroke:#999999;stroke-opacity:1"
           d="m 68.64349,805.47784 h 208.59 c 27.21075,0 49.11688,21.90613 49.11688,49.11688 v 208.58998 c 0,27.2108 -21.90613,49.1169 -49.11688,49.1169 h -208.59 c -27.210751,0 -49.116879,-21.9061 -49.116879,-49.1169 V 854.59472 c 0,-27.21075 21.906128,-49.11688 49.116879,-49.11688 z" /><path
           style="fill:#f9f9f9;fill-opacity:1;stroke:#999999;stroke-width:5.278;stroke-dasharray:none;stroke-opacity:1;paint-order:fill markers stroke"
           d="m 152.7887,1038.5135 c 0,0 -0.4928,-15.4672 -1.3787,-23.3126 -1.1841,-10.4871 -16.6469,-12.4479 -22.6859,-21.3072 -12.1536,-17.82973 -13.6758,-47.45101 -21.5579,-61.03888 -1.2333,-2.12605 4.4819,-3.47064 6.2669,-3.88542 5.3753,-1.24904 11.1549,1.62936 11.1549,1.62936 0,0 6.0612,2.54631 10.5282,8.02154 7.341,8.99765 9.9555,17.12592 12.0324,28.70205 2.0704,11.54 -2.6662,-27.74021 -2.6662,-27.74021 0,0 -0.1391,-56.18388 0.4454,-66.69009 0.5846,-10.5062 4.6084,-15.37362 11.1728,-15.54694 4.4891,-0.11852 11.7692,1.16847 11.7474,15.6308 -0.055,36.82423 0,74.53976 0,66.60623 0,-8.34394 -0.2748,-18.98302 0,-66.69009 0.04,-6.88831 -0.2926,-17.99198 8.2745,-20.84886 3.8787,-1.29343 10.6414,-0.24062 13.6694,8.06099 1.1052,3.02976 1.5864,7.28298 1.5991,12.78787 0.021,9.13662 -0.6748,39.30897 -0.1773,66.69009 0.2223,6.10625 -0.058,-36.85281 0,-66.69009 0.013,-6.66624 0.045,-14.21991 10.2053,-13.98576 9.42,0.2171 10.1458,10.33066 10.4422,13.80851 2.293,26.91296 2.1839,49.68843 2.7181,66.86734 0.2254,7.24845 -1.1932,-27.70919 0,-53.81083 0.2462,-5.38558 4.8067,-9.64187 12.0323,-8.5659 6.6429,0.98919 8.214,6.12659 8.6483,11.28029 2.7893,33.10359 6.1954,60.72972 0.6266,93.62637 -1.8504,10.93108 -8.9729,19.46843 -12.1576,30.95813 -2.2432,8.0928 -1.7547,25.5686 -1.7547,25.5686 z"
           id="path18-4-3-2"
           sodipodi:nodetypes="csssscssczssssssscssssssssscc" /><rect
           style="fill:#f9f9f9;stroke:#999999;stroke-width:6;stroke-dasharray:none;stroke-opacity:1;paint-order:fill markers stroke"
           id="rect2-9-1-2-2"
           width="93.751701"
           height="30.582106"
           x="140.42099"
           y="1035.2635"
           ry="8.8426466" /></g></g></g></svg>
