<?xml version="1.0" encoding="UTF-8" standalone="no"?>
<!-- Created with Inkscape (http://www.inkscape.org/) -->

<svg
   width="307.82373"
   height="307.82373"
   viewBox="0 0 307.82373 307.82373"
   version="1.1"
   id="svg1"
   inkscape:version="1.3.2 (091e20e, 2023-11-25, custom)"
   sodipodi:docname="Indicators.svg"
   xml:space="preserve"
   xmlns:inkscape="http://www.inkscape.org/namespaces/inkscape"
   xmlns:sodipodi="http://sodipodi.sourceforge.net/DTD/sodipodi-0.dtd"
   xmlns="http://www.w3.org/2000/svg"
   xmlns:svg="http://www.w3.org/2000/svg"><sodipodi:namedview
     id="namedview1"
     pagecolor="#ffffff"
     bordercolor="#000000"
     borderopacity="0.25"
     inkscape:showpageshadow="2"
     inkscape:pageopacity="0.0"
     inkscape:pagecheckerboard="0"
     inkscape:deskcolor="#d1d1d1"
     inkscape:document-units="px"
     inkscape:zoom="1.4104167"
     inkscape:cx="277.93204"
     inkscape:cy="225.81978"
     inkscape:window-width="1920"
     inkscape:window-height="1137"
     inkscape:window-x="1912"
     inkscape:window-y="7"
     inkscape:window-maximized="1"
     inkscape:current-layer="layer1" /><defs
     id="defs1" /><g
     inkscape:label="Layer 1"
     inkscape:groupmode="layer"
     id="layer1"
     style="display:inline"
     transform="translate(-822.13965,-1441.3427)"><g
       id="g23"
       transform="translate(-774.23926,-245.16014)"
       inkscape:export-filename="..\WinCC_OA_Proj\WCCOA_3_19\MTP_Raima\pictures\SB_ReplayOff.svg"
       inkscape:export-xdpi="96"
       inkscape:export-ydpi="96"><rect
         style="fill:#cdd3d7;fill-opacity:1;stroke:#cdd3d7;stroke-opacity:1"
         id="rect1-3-7"
         width="306.82376"
         height="306.82376"
         x="1596.8789"
         y="1687.0028"
         ry="49.131908" /><g
         id="g16"><path
           id="path12-4"
           style="fill:#f9f9f9;stroke-width:1.95408;stroke-dasharray:none;paint-order:fill markers stroke"
           d="m 1862.8481,1831.1852 -26.1938,15.123 c -1.6887,27.8922 -18.0177,53.7302 -43.2254,68.3973 -40.5242,23.3965 -91.231,11.4361 -113.2571,-26.7142 -22.0261,-38.1503 -7.0306,-88.0439 33.4934,-111.4406 25.305,-14.4962 49.1051,-15.8697 69.4382,-7.3724 20.3331,8.4973 34.131,-7.841 18.3538,-19.7736 -15.7772,-11.9326 -64.4273,-21.4429 -103.0361,0.7425 -52.733,30.445 -70.8005,97.8742 -40.3549,150.6068 30.4455,52.7319 97.8739,70.7987 150.6059,40.3534 38.6346,-22.3055 60.0196,-65.6953 54.176,-109.9222 z"
           sodipodi:nodetypes="cccsczzcssc" /><path
           sodipodi:type="star"
           style="fill:#f9f9f9;fill-opacity:1;stroke:#f9f9f9;stroke-width:6;stroke-dasharray:none;stroke-opacity:1;paint-order:fill markers stroke"
           id="path15"
           inkscape:flatsided="false"
           sodipodi:sides="3"
           sodipodi:cx="1236.3192"
           sodipodi:cy="1618.3448"
           sodipodi:r1="34.22398"
           sodipodi:r2="17.11199"
           sodipodi:arg1="0"
           sodipodi:arg2="1.0471976"
           inkscape:rounded="0"
           inkscape:randomized="0"
           d="m 1270.5432,1618.3448 -25.668,14.8195 -25.668,14.8194 v -29.6389 -29.6388 l 25.668,14.8194 z"
           inkscape:transform-center-x="-11.328678"
           transform="matrix(1.3240602,0,0,1.3240602,200.97337,-326.9108)"
           inkscape:transform-center-y="3.5316918e-05" /></g></g></g></svg>
