<?xml version="1.0" encoding="UTF-8"?>
<svg id="Ebene_1" data-name="Ebene 1" xmlns="http://www.w3.org/2000/svg" viewBox="0 0 312.39 312.39">
  <defs>
    <style>
      .cls-1 {
        fill: #89c8f2;
        stroke: #89c8f2;
        stroke-miterlimit: 10;
        stroke-width: 6px;
      }

      .cls-2 {
        fill: #cdd2d6;
      }
    </style>
  </defs>
  <rect class="cls-1" x="3" y="3" width="306.39" height="306.39" rx="35.05" ry="35.05"/>
  <rect class="cls-2" x="19.54" y="19.54" width="273.32" height="273.32" rx="17.67" ry="17.67"/>
  <g>
    <g>
      <path d="M133.08,166.33l47.4,86.52h-94.79l47.4-86.52M133.08,154.11c-.09,0-.17.04-.22.13l-57.1,104.24c-.09.17.03.37.22.37h114.21c.19,0,.31-.2.22-.37l-57.1-104.24c-.05-.09-.13-.13-.22-.13h0Z"/>
      <path d="M180.48,59.54l-47.4,86.52-47.4-86.52h94.79M190.18,53.54h-114.21c-.19,0-.31.2-.22.37l57.1,104.24c.05.09.13.13.22.13s.17-.04.22-.13l57.1-104.24c.09-.17-.03-.37-.22-.37h0Z"/>
    </g>
    <path d="M230.66,108.8v94.79l-86.52-47.4,86.52-47.4M236.41,98.84s-.08,0-.12.03l-104.24,57.1c-.17.09-.17.34,0,.44l104.24,57.1s.08.03.12.03c.13,0,.25-.1.25-.25v-114.21c0-.15-.12-.25-.25-.25h0Z"/>
  </g>
</svg>