<?xml version="1.0" encoding="UTF-8"?>
<svg id="Ebene_1" data-name="Ebene 1" xmlns="http://www.w3.org/2000/svg" viewBox="0 0 312.39 312.39">
  <defs>
    <style>
      .cls-1 {
        fill: #00a1d1;
        stroke: #00a1d1;
        stroke-width: 6px;
      }

      .cls-2 {
        fill: #cdd2d6;
      }
    </style>
  </defs>
  <rect class="cls-1" x="3" y="3" width="306.39" height="306.39" rx="35.05" ry="35.05"/>
  <g>
    <g>
      <g>
        <polygon class="cls-2" points="80.84 255.94 133.3 160.18 185.76 255.94 80.84 255.94"/>
        <path d="M133.3,166.42l47.4,86.52h-94.79l47.4-86.52M133.3,154.2c-.09,0-.17.04-.22.13l-57.1,104.24c-.09.17.03.37.22.37h114.21c.19,0,.31-.2.22-.37l-57.1-104.24c-.05-.09-.13-.13-.22-.13h0Z"/>
      </g>
      <g>
        <polygon class="cls-2" points="80.84 56.64 185.76 56.64 133.3 152.4 80.84 56.64"/>
        <path d="M180.7,59.64l-47.4,86.52-47.4-86.52h94.79M190.4,53.64h-114.21c-.19,0-.31.2-.22.37l57.1,104.24c.05.09.13.13.22.13s.17-.04.22-.13l57.1-104.24c.09-.17-.03-.37-.22-.37h0Z"/>
      </g>
    </g>
    <g>
      <polygon class="cls-2" points="138.12 156.29 233.88 103.83 233.88 208.75 138.12 156.29"/>
      <path d="M230.88,108.89v94.79l-86.52-47.4,86.52-47.4M236.63,98.94s-.08,0-.12.03l-104.24,57.1c-.17.09-.17.34,0,.44l104.24,57.1s.08.03.12.03c.13,0,.25-.1.25-.25v-114.21c0-.15-.12-.25-.25-.25h0Z"/>
    </g>
  </g>
</svg>