<?xml version="1.0" encoding="UTF-8" standalone="no"?>
<!-- Created with Inkscape (http://www.inkscape.org/) -->

<svg
   width="307.69995"
   height="307.82495"
   viewBox="0 0 307.69995 307.82495"
   version="1.1"
   id="svg1"
   inkscape:version="1.3.2 (091e20e, 2023-11-25, custom)"
   sodipodi:docname="Indicators.svg"
   xml:space="preserve"
   xmlns:inkscape="http://www.inkscape.org/namespaces/inkscape"
   xmlns:sodipodi="http://sodipodi.sourceforge.net/DTD/sodipodi-0.dtd"
   xmlns="http://www.w3.org/2000/svg"
   xmlns:svg="http://www.w3.org/2000/svg"><sodipodi:namedview
     id="namedview1"
     pagecolor="#ffffff"
     bordercolor="#000000"
     borderopacity="0.25"
     inkscape:showpageshadow="2"
     inkscape:pageopacity="0.0"
     inkscape:pagecheckerboard="0"
     inkscape:deskcolor="#d1d1d1"
     inkscape:document-units="px"
     inkscape:zoom="1.4104167"
     inkscape:cx="277.93204"
     inkscape:cy="225.81978"
     inkscape:window-width="1920"
     inkscape:window-height="1137"
     inkscape:window-x="1912"
     inkscape:window-y="7"
     inkscape:window-maximized="1"
     inkscape:current-layer="layer1" /><defs
     id="defs1" /><g
     inkscape:label="Layer 1"
     inkscape:groupmode="layer"
     id="layer1"
     style="display:inline"
     transform="translate(-3379.9927,-698.32806)"><g
       id="g40"
       transform="translate(360.17724,-862.15654)"><path
         id="rect1-3-4-4-7-6-84-5-9-2"
         style="display:inline;fill:#999999;fill-opacity:1;stroke:#cdd3d7;stroke-width:0.752743;stroke-opacity:1"
         d="m 3327.1391,1815.6696 c 0,28.8855 -23.2551,52.1406 -52.1406,52.1406 h -81.0937 v 0.123 H 3020.1919 V 1560.861 h 173.7129 v 0.125 h 81.0937 c 28.8855,0 52.1406,23.2531 52.1406,52.1386 z" /><g
         id="g24-7-8-6-5-9"
         transform="matrix(1.2277197,-0.17486073,0.17486073,1.2277197,1457.4735,1276.4691)"
         style="display:inline"><path
           id="path23-3-0-6-9-6"
           style="fill:#f9f9f9;fill-opacity:1;stroke:none;stroke-width:112.453;stroke-dasharray:none;stroke-opacity:1;paint-order:fill markers stroke"
           d="m 1291.3912,472.51315 -6.8965,11.24414 a 63.16959,63.16959 0 0 0 -22.0429,4.22851 l -10.5215,-8.03515 a 74.700546,74.700546 0 0 0 -15.0625,9.74804 l 3.0957,12.91797 a 63.16959,63.16959 0 0 0 -12.7871,18.4375 l -12.9219,1.73047 a 74.700546,74.700546 0 0 0 -3.709,17.60742 l 11.0879,6.80078 a 63.16959,63.16959 0 0 0 4.2285,22.04297 l -8.0371,10.52149 a 74.700546,74.700546 0 0 0 9.75,15.06054 l 12.918,-3.09374 a 63.16959,63.16959 0 0 0 18.4355,12.7871 l 1.7285,12.91993 a 74.700546,74.700546 0 0 0 17.6114,3.70898 l 6.8007,-11.08594 a 63.16959,63.16959 0 0 0 22.043,-4.22851 l 10.5195,8.03711 a 74.700546,74.700546 0 0 0 15.0625,-9.75 l -3.0937,-12.91797 a 63.16959,63.16959 0 0 0 12.7871,-18.4375 l 12.9199,-1.72852 a 74.700546,74.700546 0 0 0 3.709,-17.60937 l -11.0723,-6.79297 a 63.16959,63.16959 0 0 0 -4.1406,-22.1836 l 8.002,-10.47656 a 74.700546,74.700546 0 0 0 -9.7442,-14.99023 l -12.8125,3.07031 a 63.16959,63.16959 0 0 0 -18.6152,-12.75976 l -1.75,-13.06641 a 74.700546,74.700546 0 0 0 -17.4922,-3.70703 z m -6.6113,34.95703 a 39.355663,39.355663 0 0 1 39.3574,39.35742 39.355663,39.355663 0 0 1 -39.3574,39.35547 39.355663,39.355663 0 0 1 -39.3555,-39.35547 39.355663,39.355663 0 0 1 39.3555,-39.35742 z" /><path
           id="path23-6-1-6-00-8-6"
           style="fill:#f9f9f9;fill-opacity:1;stroke:none;stroke-width:73.8289;stroke-dasharray:none;stroke-opacity:1;paint-order:fill markers stroke"
           d="m 1397.2635,453.42689 -4.5277,7.38213 a 41.472797,41.472797 0 0 0 -14.4719,2.77615 l -6.9077,-5.27533 a 49.043228,49.043228 0 0 0 -9.889,6.39989 l 2.0325,8.48105 a 41.472797,41.472797 0 0 0 -8.3952,12.10479 l -8.4836,1.13611 a 49.043228,49.043228 0 0 0 -2.4351,11.55982 l 7.2796,4.46492 a 41.472797,41.472797 0 0 0 2.7761,14.47189 l -5.2766,6.90769 a 49.043228,49.043228 0 0 0 6.4012,9.88771 l 8.4811,-2.03114 a 41.472797,41.472797 0 0 0 12.1034,8.39513 l 1.1349,8.48234 a 49.043228,49.043228 0 0 0 11.5624,2.43506 l 4.4649,-7.27827 a 41.472797,41.472797 0 0 0 14.4719,-2.77614 l 6.9064,5.27661 a 49.043228,49.043228 0 0 0 9.889,-6.40118 l -2.0312,-8.48105 a 41.472797,41.472797 0 0 0 8.3952,-12.10479 l 8.4823,-1.13483 a 49.043228,49.043228 0 0 0 2.4351,-11.56109 l -7.2693,-4.4598 a 41.472797,41.472797 0 0 0 -2.7185,-14.56422 l 5.2536,-6.87819 a 49.043228,49.043228 0 0 0 -6.3974,-9.84155 l -8.4118,2.01575 a 41.472797,41.472797 0 0 0 -12.2214,-8.37717 l -1.149,-8.57851 a 49.043228,49.043228 0 0 0 -11.4842,-2.43378 z m -4.3405,22.95038 a 25.838215,25.838215 0 0 1 25.8394,25.83937 25.838215,25.838215 0 0 1 -25.8394,25.83808 25.838215,25.838215 0 0 1 -25.8381,-25.83808 25.838215,25.838215 0 0 1 25.8381,-25.83937 z" /></g></g></g></svg>
