<?xml version="1.0" encoding="UTF-8" standalone="no"?>
<!-- Created with Inkscape (http://www.inkscape.org/) -->

<svg
   width="307.82495"
   height="307.69992"
   viewBox="0 0 307.82495 307.69992"
   version="1.1"
   id="svg1"
   inkscape:version="1.3.2 (091e20e, 2023-11-25, custom)"
   sodipodi:docname="internal_3_neu.svg"
   xml:space="preserve"
   xmlns:inkscape="http://www.inkscape.org/namespaces/inkscape"
   xmlns:sodipodi="http://sodipodi.sourceforge.net/DTD/sodipodi-0.dtd"
   xmlns="http://www.w3.org/2000/svg"
   xmlns:svg="http://www.w3.org/2000/svg"><sodipodi:namedview
     id="namedview1"
     pagecolor="#ffffff"
     bordercolor="#000000"
     borderopacity="0.25"
     inkscape:showpageshadow="2"
     inkscape:pageopacity="0.0"
     inkscape:pagecheckerboard="0"
     inkscape:deskcolor="#d1d1d1"
     inkscape:document-units="px"
     inkscape:zoom="1.4104167"
     inkscape:cx="251.69866"
     inkscape:cy="149.95568"
     inkscape:window-width="1920"
     inkscape:window-height="1017"
     inkscape:window-x="-8"
     inkscape:window-y="-8"
     inkscape:window-maximized="1"
     inkscape:current-layer="g34" /><defs
     id="defs1" /><g
     inkscape:label="Layer 1"
     inkscape:groupmode="layer"
     id="layer1"
     style="display:inline"
     transform="translate(-2607.6118,-357.89096)"><g
       inkscape:groupmode="layer"
       id="layer3"
       inkscape:label="Layer 2"><rect
         style="fill:#cdd3d7;stroke:#cdd3d7;stroke-width:1.03499;fill-opacity:1"
         id="rect1"
         width="306.79001"
         height="306.66501"
         x="2608.1292"
         y="358.40848"
         ry="50.261021" /></g><g
       id="g38"
       transform="translate(-246.73559,-852.81238)"><g
         id="g34"
         transform="translate(0.01113564,1.1561108)"><g
           id="g24-7-8-0"
           transform="rotate(-8.1059621,7670.2029,-10781.912)"
           style="display:inline"><path
             id="path23-3-0-8"
             style="fill:#f9f9f9;fill-opacity:1;stroke:none;stroke-width:112.453;stroke-dasharray:none;stroke-opacity:1;paint-order:fill markers stroke"
             d="m 1291.3912,472.51315 -6.8965,11.24414 a 63.16959,63.16959 0 0 0 -22.0429,4.22851 l -10.5215,-8.03515 a 74.700546,74.700546 0 0 0 -15.0625,9.74804 l 3.0957,12.91797 a 63.16959,63.16959 0 0 0 -12.7871,18.4375 l -12.9219,1.73047 a 74.700546,74.700546 0 0 0 -3.709,17.60742 l 11.0879,6.80078 a 63.16959,63.16959 0 0 0 4.2285,22.04297 l -8.0371,10.52149 a 74.700546,74.700546 0 0 0 9.75,15.06054 l 12.918,-3.09374 a 63.16959,63.16959 0 0 0 18.4355,12.7871 l 1.7285,12.91993 a 74.700546,74.700546 0 0 0 17.6114,3.70898 l 6.8007,-11.08594 a 63.16959,63.16959 0 0 0 22.043,-4.22851 l 10.5195,8.03711 a 74.700546,74.700546 0 0 0 15.0625,-9.75 l -3.0937,-12.91797 a 63.16959,63.16959 0 0 0 12.7871,-18.4375 l 12.9199,-1.72852 a 74.700546,74.700546 0 0 0 3.709,-17.60937 l -11.0723,-6.79297 a 63.16959,63.16959 0 0 0 -4.1406,-22.1836 l 8.002,-10.47656 a 74.700546,74.700546 0 0 0 -9.7442,-14.99023 l -12.8125,3.07031 a 63.16959,63.16959 0 0 0 -18.6152,-12.75976 l -1.75,-13.06641 a 74.700546,74.700546 0 0 0 -17.4922,-3.70703 z m -6.6113,34.95703 a 39.355663,39.355663 0 0 1 39.3574,39.35742 39.355663,39.355663 0 0 1 -39.3574,39.35547 39.355663,39.355663 0 0 1 -39.3555,-39.35547 39.355663,39.355663 0 0 1 39.3555,-39.35742 z" /><path
             id="path23-6-1-6-5"
             style="fill:#f9f9f9;fill-opacity:1;stroke:none;stroke-width:73.8289;stroke-dasharray:none;stroke-opacity:1;paint-order:fill markers stroke"
             d="m 1397.2635,453.42689 -4.5277,7.38213 a 41.472797,41.472797 0 0 0 -14.4719,2.77615 l -6.9077,-5.27533 a 49.043228,49.043228 0 0 0 -9.889,6.39989 l 2.0325,8.48105 a 41.472797,41.472797 0 0 0 -8.3952,12.10479 l -8.4836,1.13611 a 49.043228,49.043228 0 0 0 -2.4351,11.55982 l 7.2796,4.46492 a 41.472797,41.472797 0 0 0 2.7761,14.47189 l -5.2766,6.90769 a 49.043228,49.043228 0 0 0 6.4012,9.88771 l 8.4811,-2.03114 a 41.472797,41.472797 0 0 0 12.1034,8.39513 l 1.1349,8.48234 a 49.043228,49.043228 0 0 0 11.5624,2.43506 l 4.4649,-7.27827 a 41.472797,41.472797 0 0 0 14.4719,-2.77614 l 6.9064,5.27661 a 49.043228,49.043228 0 0 0 9.889,-6.40118 l -2.0312,-8.48105 a 41.472797,41.472797 0 0 0 8.3952,-12.10479 l 8.4823,-1.13483 a 49.043228,49.043228 0 0 0 2.4351,-11.56109 l -7.2693,-4.4598 a 41.472797,41.472797 0 0 0 -2.7185,-14.56422 l 5.2536,-6.87819 a 49.043228,49.043228 0 0 0 -6.3974,-9.84155 l -8.4118,2.01575 a 41.472797,41.472797 0 0 0 -12.2214,-8.37717 l -1.149,-8.57851 a 49.043228,49.043228 0 0 0 -11.4842,-2.43378 z m -4.3405,22.95038 a 25.838215,25.838215 0 0 1 25.8394,25.83937 25.838215,25.838215 0 0 1 -25.8394,25.83808 25.838215,25.838215 0 0 1 -25.8381,-25.83808 25.838215,25.838215 0 0 1 25.8381,-25.83937 z" /></g><rect
           style="display:inline;fill:none;fill-opacity:1;stroke:#f9f9f9;stroke-width:4.62619;stroke-dasharray:none;stroke-opacity:1;paint-order:fill markers stroke"
           id="rect11-1-8-4-5-2"
           width="45.154022"
           height="0.5730468"
           x="3053.1025"
           y="1325.348" /><rect
           style="display:inline;fill:none;fill-opacity:1;stroke:#f9f9f9;stroke-width:4.93716;stroke-dasharray:none;stroke-opacity:1;paint-order:fill markers stroke"
           id="rect11-5-1-8-2-5-8"
           width="38.379776"
           height="0.76787764"
           x="1325.8376"
           y="-3098.095"
           transform="rotate(90)" /><path
           sodipodi:type="star"
           style="display:inline;fill:#f9f9f9;fill-opacity:1;stroke:#f9f9f9;stroke-width:5.278;stroke-dasharray:none;stroke-opacity:1;paint-order:fill markers stroke"
           id="path11-0-6-9-7-3"
           inkscape:flatsided="true"
           sodipodi:sides="3"
           sodipodi:cx="1724.0035"
           sodipodi:cy="253.80643"
           sodipodi:r1="36.286163"
           sodipodi:r2="18.143082"
           sodipodi:arg1="-0.52857171"
           sodipodi:arg2="0.51862584"
           inkscape:rounded="0"
           inkscape:randomized="0"
           d="m 1755.3377,235.5073 -31.1537,54.58484 -31.695,-54.2723 z"
           inkscape:transform-center-x="0.034694859"
           inkscape:transform-center-y="3.0174881"
           transform="matrix(0.50075719,0,0,0.40374426,2234.1685,1270.9925)" /><g
           id="g33-5-5"
           style="display:inline"
           transform="translate(771.7429,-324.07062)"><rect
             style="display:inline;fill:#f9f9f9;fill-opacity:1;stroke:#f9f9f9;stroke-width:5.278;stroke-dasharray:none;stroke-opacity:1;paint-order:fill markers stroke"
             id="rect13-6-58-8-5-6-7"
             width="95.716393"
             height="98.552437"
             x="2274.7886"
             y="1724.0558"
             ry="16.661743" /><rect
             style="display:inline;fill:#f9f9f9;fill-opacity:1;stroke:#cdd3d7;stroke-width:4;stroke-dasharray:none;stroke-opacity:1;paint-order:fill markers stroke"
             id="rect13-6-3-7-8-6-0-4"
             width="96.251854"
             height="31.406193"
             x="2275.0369"
             y="1722.5847"
             ry="15.703096" /></g></g></g></g></svg>
