<?xml version="1.0" encoding="UTF-8" standalone="no"?>
<!-- Created with Inkscape (http://www.inkscape.org/) -->

<svg
   width="307.82385"
   height="307.82376"
   viewBox="0 0 307.82385 307.82376"
   version="1.1"
   id="svg1"
   inkscape:version="1.3.2 (091e20e, 2023-11-25, custom)"
   sodipodi:docname="Indicators.svg"
   xml:space="preserve"
   xmlns:inkscape="http://www.inkscape.org/namespaces/inkscape"
   xmlns:sodipodi="http://sodipodi.sourceforge.net/DTD/sodipodi-0.dtd"
   xmlns="http://www.w3.org/2000/svg"
   xmlns:svg="http://www.w3.org/2000/svg"><sodipodi:namedview
     id="namedview1"
     pagecolor="#ffffff"
     bordercolor="#000000"
     borderopacity="0.25"
     inkscape:showpageshadow="2"
     inkscape:pageopacity="0.0"
     inkscape:pagecheckerboard="0"
     inkscape:deskcolor="#d1d1d1"
     inkscape:document-units="px"
     inkscape:zoom="0.49865761"
     inkscape:cx="1349.6235"
     inkscape:cy="508.36485"
     inkscape:window-width="1920"
     inkscape:window-height="1137"
     inkscape:window-x="1912"
     inkscape:window-y="7"
     inkscape:window-maximized="1"
     inkscape:current-layer="layer1" /><defs
     id="defs1" /><g
     inkscape:label="Layer 1"
     inkscape:groupmode="layer"
     id="layer1"
     transform="translate(-1138.3291,-79.476616)"><g
       id="g20"
       transform="translate(-30.08076,15.043066)"><rect
         style="fill:#4d4d4d;stroke:#666666"
         id="rect1-3-4"
         width="306.82376"
         height="306.82376"
         x="1168.9099"
         y="64.933548" /><g
         id="g18"
         transform="translate(10.432126,-6.307676)"><path
           style="fill:#f9f9f9;fill-opacity:1;stroke:#4d4d4d;stroke-width:5.278;stroke-dasharray:none;stroke-opacity:1;paint-order:fill markers stroke"
           d="m 1291.7399,304.2769 c 0,0 -0.4928,-15.46719 -1.3787,-23.31259 -1.1841,-10.48706 -16.6469,-12.44786 -22.6859,-21.3072 -12.1536,-17.82973 -13.6758,-47.45101 -21.5579,-61.03888 -1.2333,-2.12605 4.4819,-3.47064 6.2669,-3.88542 5.3753,-1.24904 11.1549,1.62936 11.1549,1.62936 0,0 6.0612,2.54631 10.5282,8.02154 7.341,8.99765 9.9555,17.12592 12.0324,28.70205 2.0704,11.54 -2.6662,-27.74021 -2.6662,-27.74021 0,0 -0.1391,-56.18388 0.4454,-66.69009 0.5846,-10.5062 4.6084,-15.37362 11.1728,-15.54694 4.4891,-0.11852 11.7692,1.16847 11.7474,15.6308 -0.055,36.82423 0,74.53976 0,66.60623 0,-8.34394 -0.2748,-18.98302 0,-66.69009 0.04,-6.88831 -0.2926,-17.99198 8.2745,-20.84886 3.8787,-1.29343 10.6414,-0.24062 13.6694,8.06099 1.1052,3.02976 1.5864,7.28298 1.5991,12.78787 0.021,9.13662 -0.6748,39.30897 -0.1773,66.69009 0.2223,6.10625 -0.058,-36.85281 0,-66.69009 0.013,-6.66624 0.045,-14.21991 10.2053,-13.98576 9.42,0.2171 10.1458,10.33066 10.4422,13.80851 2.293,26.91296 2.1839,49.68843 2.7181,66.86734 0.2254,7.24845 -1.1932,-27.70919 0,-53.81083 0.2462,-5.38558 4.8067,-9.64187 12.0323,-8.5659 6.6429,0.98919 8.214,6.12659 8.6483,11.28029 2.7893,33.10359 6.1954,60.72972 0.6266,93.62637 -1.8504,10.93108 -8.9729,19.46847 -12.1576,30.95811 -2.2432,8.09284 -1.7547,25.56865 -1.7547,25.56865 z"
           id="path18-4-3"
           sodipodi:nodetypes="csssscssczssssssscssssssssscc" /><rect
           style="fill:#f9f9f9;stroke:#4d4d4d;stroke-width:6;stroke-dasharray:none;paint-order:fill markers stroke"
           id="rect2-9-1-2"
           width="93.751701"
           height="30.582106"
           x="1279.3722"
           y="301.02692"
           ry="8.8426466" /></g></g></g></svg>
