<?xml version="1.0" encoding="UTF-8" standalone="no"?>
<!-- Created with Inkscape (http://www.inkscape.org/) -->

<svg
   width="307.82373"
   height="307.82385"
   viewBox="0 0 307.82373 307.82385"
   version="1.1"
   id="svg1"
   inkscape:version="1.3.2 (091e20e, 2023-11-25, custom)"
   sodipodi:docname="Indicators.svg"
   xml:space="preserve"
   xmlns:inkscape="http://www.inkscape.org/namespaces/inkscape"
   xmlns:sodipodi="http://sodipodi.sourceforge.net/DTD/sodipodi-0.dtd"
   xmlns="http://www.w3.org/2000/svg"
   xmlns:svg="http://www.w3.org/2000/svg"><sodipodi:namedview
     id="namedview1"
     pagecolor="#ffffff"
     bordercolor="#000000"
     borderopacity="0.25"
     inkscape:showpageshadow="2"
     inkscape:pageopacity="0.0"
     inkscape:pagecheckerboard="0"
     inkscape:deskcolor="#d1d1d1"
     inkscape:document-units="px"
     inkscape:zoom="1.4104167"
     inkscape:cx="277.93204"
     inkscape:cy="225.81978"
     inkscape:window-width="1920"
     inkscape:window-height="1137"
     inkscape:window-x="1912"
     inkscape:window-y="7"
     inkscape:window-maximized="1"
     inkscape:current-layer="layer1" /><defs
     id="defs1" /><g
     inkscape:label="Layer 1"
     inkscape:groupmode="layer"
     id="layer1"
     style="display:inline"
     transform="translate(-3024.9336,-1050.4934)"><g
       id="g43"
       transform="translate(-363.01328,-517.92305)"><rect
         style="display:inline;fill:#999999;fill-opacity:1;stroke:#cdd3d7;stroke-opacity:1"
         id="rect1-3-4-8-8-7"
         width="306.82376"
         height="306.82376"
         x="3388.4468"
         y="1568.9165" /><path
         style="display:inline;fill:#f9f9f9;fill-opacity:1;stroke:#999999;stroke-width:5.278;stroke-dasharray:none;stroke-opacity:1;paint-order:fill markers stroke"
         d="m 3521.709,1801.9521 c 0,0 -0.4928,-15.4672 -1.3787,-23.3126 -1.1841,-10.4871 -16.6469,-12.4479 -22.6859,-21.3072 -12.1536,-17.8297 -13.6758,-47.451 -21.5579,-61.0389 -1.2333,-2.126 4.4819,-3.4706 6.2669,-3.8854 5.3753,-1.249 11.1549,1.6294 11.1549,1.6294 0,0 6.0612,2.5463 10.5282,8.0215 7.341,8.9976 9.9555,17.1259 12.0324,28.702 2.0704,11.54 -2.6662,-27.7402 -2.6662,-27.7402 0,0 -0.1391,-56.1838 0.4454,-66.6901 0.5846,-10.5062 4.6084,-15.3736 11.1728,-15.5469 4.4891,-0.1185 11.7692,1.1685 11.7474,15.6308 -0.055,36.8242 0,74.5398 0,66.6062 0,-8.3439 -0.2748,-18.983 0,-66.6901 0.04,-6.8883 -0.2926,-17.9919 8.2745,-20.8488 3.8787,-1.2934 10.6414,-0.2406 13.6694,8.061 1.1052,3.0297 1.5864,7.283 1.5991,12.7878 0.021,9.1367 -0.6748,39.309 -0.1773,66.6901 0.2223,6.1063 -0.058,-36.8528 0,-66.6901 0.013,-6.6662 0.045,-14.2199 10.2053,-13.9857 9.42,0.2171 10.1458,10.3306 10.4422,13.8085 2.293,26.913 2.1839,49.6884 2.7181,66.8673 0.2254,7.2485 -1.1932,-27.7092 0,-53.8108 0.2462,-5.3856 4.8067,-9.6419 12.0323,-8.5659 6.6429,0.9892 8.214,6.1266 8.6483,11.2803 2.7893,33.1036 6.1954,60.7297 0.6266,93.6264 -1.8504,10.931 -8.9729,19.4684 -12.1576,30.9581 -2.2432,8.0928 -1.7547,25.5686 -1.7547,25.5686 z"
         id="path18-4-3-2-1-6"
         sodipodi:nodetypes="csssscssczssssssscssssssssscc" /><rect
         style="display:inline;fill:#f9f9f9;stroke:#999999;stroke-width:6;stroke-dasharray:none;stroke-opacity:1;paint-order:fill markers stroke"
         id="rect2-9-1-2-2-9-6"
         width="93.751701"
         height="30.582106"
         x="3509.3413"
         y="1798.7021"
         ry="8.8426466" /></g></g></svg>
