<?xml version="1.0" encoding="UTF-8" standalone="no"?>
<!-- Created with Inkscape (http://www.inkscape.org/) -->

<svg
   width="306.82373"
   height="306.82376"
   viewBox="0 0 306.82373 306.82376"
   version="1.1"
   id="svg1"
   inkscape:version="1.3.2 (091e20e, 2023-11-25, custom)"
   sodipodi:docname="Indicators.svg"
   xml:space="preserve"
   xmlns:inkscape="http://www.inkscape.org/namespaces/inkscape"
   xmlns:sodipodi="http://sodipodi.sourceforge.net/DTD/sodipodi-0.dtd"
   xmlns="http://www.w3.org/2000/svg"
   xmlns:svg="http://www.w3.org/2000/svg"><sodipodi:namedview
     id="namedview1"
     pagecolor="#ffffff"
     bordercolor="#000000"
     borderopacity="0.25"
     inkscape:showpageshadow="2"
     inkscape:pageopacity="0.0"
     inkscape:pagecheckerboard="0"
     inkscape:deskcolor="#d1d1d1"
     inkscape:document-units="px"
     inkscape:zoom="1.4104167"
     inkscape:cx="1148.2422"
     inkscape:cy="338.55244"
     inkscape:window-width="1920"
     inkscape:window-height="1001"
     inkscape:window-x="-9"
     inkscape:window-y="-9"
     inkscape:window-maximized="1"
     inkscape:current-layer="layer1" /><defs
     id="defs1" /><g
     inkscape:label="Layer 1"
     inkscape:groupmode="layer"
     id="layer1"
     transform="translate(-788.35925,-81.924156)"><g
       id="g1"><rect
         style="fill:#4d4d4d"
         id="rect1-3"
         width="306.82376"
         height="306.82376"
         x="788.35925"
         y="81.924156" /><g
         id="g12"
         transform="translate(-161.65368,-410.78429)"><path
           id="path12"
           style="fill:#f9f9f9;stroke-width:1.95408;stroke-dasharray:none;paint-order:fill markers stroke"
           d="m 1145.5684,560.28125 v 30.24609 a 79.763664,84.72673 0 0 1 37.6211,71.63282 79.763664,84.72673 0 0 1 -79.7637,84.72656 79.763664,84.72673 0 0 1 -79.7637,-84.72656 79.763664,84.72673 0 0 1 37.6191,-71.63086 v -30.02149 a 110.25111,110.25111 0 0 0 -68.10737,101.65235 110.25111,110.25111 0 0 0 110.25197,110.25195 110.25111,110.25111 0 0 0 110.25,-110.25195 110.25111,110.25111 0 0 0 -68.1074,-101.87891 z" /><rect
           style="fill:#f9f9f9;stroke-width:1.797;stroke-dasharray:none;paint-order:fill markers stroke"
           id="rect12-6"
           width="36.159527"
           height="138.25702"
           x="1082.7733"
           y="519.82855"
           ry="16.544418" /></g></g></g></svg>
