<?xml version="1.0" encoding="UTF-8" standalone="no"?>
<!-- Created with Inkscape (http://www.inkscape.org/) -->

<svg
   width="312.82422"
   height="312.82446"
   viewBox="0 0 312.82422 312.82446"
   version="1.1"
   id="svg1"
   inkscape:version="1.3.2 (091e20e, 2023-11-25, custom)"
   sodipodi:docname="ValveOpen1_rounded.svg"
   xml:space="preserve"
   xmlns:inkscape="http://www.inkscape.org/namespaces/inkscape"
   xmlns:sodipodi="http://sodipodi.sourceforge.net/DTD/sodipodi-0.dtd"
   xmlns="http://www.w3.org/2000/svg"
   xmlns:svg="http://www.w3.org/2000/svg"><sodipodi:namedview
     id="namedview1"
     pagecolor="#ffffff"
     bordercolor="#000000"
     borderopacity="0.25"
     inkscape:showpageshadow="2"
     inkscape:pageopacity="0.0"
     inkscape:pagecheckerboard="0"
     inkscape:deskcolor="#d1d1d1"
     inkscape:document-units="px"
     inkscape:zoom="2.6244756"
     inkscape:cx="156.22168"
     inkscape:cy="156.4122"
     inkscape:window-width="1920"
     inkscape:window-height="1017"
     inkscape:window-x="-8"
     inkscape:window-y="-8"
     inkscape:window-maximized="1"
     inkscape:current-layer="layer7"
     showgrid="false" /><defs
     id="defs1" /><g
     inkscape:groupmode="layer"
     id="layer7"
     inkscape:label="Layer 2"><rect
       style="fill:#999999;stroke:#999999;stroke-width:6;stroke-dasharray:none;fill-opacity:1"
       id="rect1"
       width="306.39105"
       height="306.39105"
       x="3.2164748"
       y="3.2164748"
       ry="35.054623" /></g><g
     inkscape:label="Layer 1"
     inkscape:groupmode="layer"
     id="layer1"
     style="display:inline"
     transform="translate(-35.162941,-2194.887)"><rect
       style="fill:#ffffff;stroke:#ffffff;stroke-width:14.1968;stroke-linecap:square;paint-order:fill markers stroke"
       id="rect2"
       width="31.927151"
       height="202.90805"
       x="270.10132"
       y="2249.8452" /><rect
       style="display:inline;fill:#ffffff;stroke:#ffffff;stroke-width:14.1968;stroke-linecap:square;paint-order:fill markers stroke"
       id="rect2-2"
       width="31.927151"
       height="202.90805"
       x="89.264687"
       y="2249.8452" /><path
       id="rect2-4-7"
       style="display:inline;fill:#ffffff;stroke:#ffffff;stroke-width:10.3806;stroke-linecap:square;paint-order:fill markers stroke"
       d="m 217.92127,2351.2981 a 22.216398,23.233278 0 0 0 -8.3205,-18.0697 v -35.8975 c 0,-4.6248 -6.1963,-8.3473 -13.8946,-8.3473 -7.6983,0 -13.8966,3.7225 -13.8966,8.3473 v 35.8975 a 22.216398,23.233278 0 0 0 -8.3205,18.0697 22.216398,23.233278 0 0 0 8.3205,18.0718 v 35.8953 c 0,4.6249 6.1983,8.3494 13.8966,8.3494 7.6983,0 13.8946,-3.7245 13.8946,-8.3494 v -35.8445 a 22.216398,23.233278 0 0 0 8.3205,-18.1226 z" /></g></svg>
