<?xml version="1.0" encoding="UTF-8" standalone="no"?>
<!-- Created with Inkscape (http://www.inkscape.org/) -->

<svg
   width="312.82419"
   height="312.82446"
   viewBox="0 0 312.82419 312.82446"
   version="1.1"
   id="svg1"
   inkscape:version="1.3.2 (091e20e, 2023-11-25, custom)"
   sodipodi:docname="Indicators.svg"
   xml:space="preserve"
   xmlns:inkscape="http://www.inkscape.org/namespaces/inkscape"
   xmlns:sodipodi="http://sodipodi.sourceforge.net/DTD/sodipodi-0.dtd"
   xmlns="http://www.w3.org/2000/svg"
   xmlns:svg="http://www.w3.org/2000/svg"><sodipodi:namedview
     id="namedview1"
     pagecolor="#ffffff"
     bordercolor="#000000"
     borderopacity="0.25"
     inkscape:showpageshadow="2"
     inkscape:pageopacity="0.0"
     inkscape:pagecheckerboard="0"
     inkscape:deskcolor="#d1d1d1"
     inkscape:document-units="px"
     inkscape:zoom="0.49865761"
     inkscape:cx="479.28678"
     inkscape:cy="2407.4635"
     inkscape:window-width="1920"
     inkscape:window-height="1137"
     inkscape:window-x="1912"
     inkscape:window-y="7"
     inkscape:window-maximized="1"
     inkscape:current-layer="layer1" /><defs
     id="defs1" /><g
     inkscape:label="Layer 1"
     inkscape:groupmode="layer"
     id="layer1"
     style="display:inline"
     transform="translate(-387.35678,-2200.1602)"><g
       id="g58"
       transform="translate(419.12526,-366.98527)"><g
         id="g57"><path
           id="rect1-3-4-2-2-6-3-35-3-3"
           style="display:inline;fill:#00a1d1;fill-opacity:1;stroke:#cdd3d7;stroke-width:6;stroke-dasharray:none;stroke-opacity:1"
           d="m 25.116212,2570.1455 c -29.8520999,0 -53.8847,24.0326 -53.8847,53.8848 v 199.0527 c 0,29.8522 24.0326001,53.8868 53.8847,53.8868 h 39.7051 159.349598 53.8848 v -53.8868 -199.0527 -53.8849 H 224.17091 64.821312 Z" /><rect
           style="display:inline;fill:#ffffff;stroke:#ffffff;stroke-width:14.1968;stroke-linecap:square;paint-order:fill markers stroke"
           id="rect2-7"
           width="31.927151"
           height="202.90805"
           x="203.16991"
           y="2622.1035" /><rect
           style="display:inline;fill:#ffffff;stroke:#ffffff;stroke-width:14.1968;stroke-linecap:square;paint-order:fill markers stroke"
           id="rect2-2-4"
           width="31.927151"
           height="202.90805"
           x="22.333258"
           y="2622.1035" /><path
           id="rect2-4-7-9"
           style="display:inline;fill:#ffffff;stroke:#ffffff;stroke-width:10.3806;stroke-linecap:square;paint-order:fill markers stroke"
           d="m 128.77272,2701.3415 a 23.233278,22.216398 0 0 0 -18.06974,8.3205 H 74.805572 c -4.62486,0 -8.34738,6.1963 -8.34738,13.8946 0,7.6983 3.72252,13.8966 8.34738,13.8966 h 35.897408 a 23.233278,22.216398 0 0 0 18.06974,8.3205 23.233278,22.216398 0 0 0 18.07176,-8.3205 h 35.89536 c 4.62488,0 8.34943,-6.1983 8.34943,-13.8966 0,-7.6983 -3.72455,-13.8946 -8.34943,-13.8946 h -35.84452 a 23.233278,22.216398 0 0 0 -18.1226,-8.3205 z" /></g></g></g></svg>
